<svg id="svg" xmlns="http://www.w3.org/2000/svg" xmlns:xlink="http://www.w3.org/1999/xlink" width="400" height="400" viewBox="0, 0, 400,400"><g id="svgg"><path id="path0" d="M117.188 1.278 C 109.492 2.443,98.254 5.247,90.364 7.969 C 83.232 10.430,60.973 22.160,59.375 24.300 C 59.160 24.587,56.172 26.922,52.734 29.488 C 44.524 35.617,35.855 44.232,29.684 52.391 C 26.942 56.017,24.491 59.160,24.238 59.375 C 21.967 61.299,10.943 82.273,8.223 89.844 C -2.447 119.537,-2.992 155.060,6.755 185.461 C 10.002 195.588,21.270 218.020,24.263 220.313 C 24.543 220.527,26.146 222.693,27.825 225.126 C 32.026 231.213,42.468 242.445,47.670 246.474 C 50.041 248.310,53.219 250.908,54.732 252.248 C 63.826 260.299,94.021 274.921,101.693 274.988 C 102.409 274.995,103.112 275.322,103.255 275.716 C 103.591 276.638,113.178 278.603,122.989 279.760 C 139.045 281.654,170.832 279.319,177.202 275.778 C 177.925 275.377,181.328 274.188,184.766 273.136 C 193.908 270.338,202.970 266.563,207.422 263.698 C 209.570 262.316,213.033 260.215,215.116 259.030 L 218.905 256.875 221.614 259.492 C 223.104 260.932,254.798 292.623,292.044 329.918 C 329.291 367.212,360.715 398.238,361.875 398.863 C 367.952 402.138,370.362 400.786,385.574 385.574 C 400.786 370.362,402.138 367.952,398.863 361.875 C 398.238 360.715,367.212 329.291,329.918 292.044 C 292.623 254.798,260.946 223.119,259.524 221.647 L 256.939 218.971 259.887 213.587 C 261.509 210.626,263.384 207.606,264.055 206.877 C 265.490 205.316,271.027 191.795,273.430 183.984 C 274.356 180.977,275.424 177.813,275.805 176.953 C 281.872 163.261,281.848 115.762,275.768 102.734 C 275.367 101.875,273.934 97.656,272.583 93.359 C 268.638 80.809,256.548 58.165,251.311 53.516 C 250.342 52.656,248.094 50.020,246.315 47.656 C 242.489 42.575,231.335 32.117,225.210 27.868 C 222.824 26.212,220.016 24.064,218.970 23.094 C 216.315 20.632,192.869 8.917,186.719 6.980 C 165.698 0.357,138.169 -1.901,117.188 1.278 M167.188 17.443 C 183.341 21.025,209.456 32.677,214.063 38.358 C 214.277 38.623,216.738 40.692,219.531 42.956 C 222.324 45.221,227.695 50.281,231.467 54.201 C 237.444 60.414,240.445 64.392,248.922 77.344 C 251.708 81.600,255.998 91.331,258.622 99.345 C 259.936 103.358,261.352 107.344,261.769 108.203 C 266.709 118.390,266.692 160.308,261.743 171.484 C 261.362 172.344,259.920 176.563,258.537 180.859 C 256.063 188.545,250.521 201.489,249.351 202.314 C 249.023 202.545,246.837 205.767,244.493 209.473 C 236.155 222.660,222.660 236.155,209.473 244.493 C 205.767 246.837,202.545 249.023,202.314 249.351 C 201.502 250.503,188.596 256.041,180.859 258.558 C 176.563 259.956,172.344 261.383,171.484 261.729 C 160.093 266.317,132.196 267.018,113.328 263.190 C 110.990 262.715,108.529 262.025,107.859 261.654 C 107.189 261.284,103.341 259.908,99.309 258.595 C 91.521 256.061,78.125 250.139,78.125 249.231 C 78.125 248.932,77.223 248.278,76.121 247.775 C 67.667 243.923,51.724 230.346,42.956 219.531 C 40.692 216.738,38.613 214.277,38.337 214.063 C 37.522 213.429,30.978 202.453,27.409 195.733 C 14.640 171.691,11.228 136.745,18.779 107.345 C 20.936 98.947,24.716 88.297,25.823 87.500 C 26.121 87.285,27.862 84.121,29.691 80.469 C 32.936 73.989,36.921 67.585,38.685 66.016 C 39.167 65.586,40.218 64.180,41.019 62.891 C 43.054 59.618,56.999 45.411,60.956 42.578 C 62.757 41.289,64.842 39.673,65.589 38.987 C 68.325 36.475,73.989 32.936,80.469 29.691 C 84.121 27.862,87.285 26.121,87.500 25.823 C 88.950 23.810,108.709 17.860,120.022 16.029 C 131.381 14.192,155.826 14.924,167.188 17.443 M125.781 39.584 C 80.996 46.666,47.505 78.884,40.299 121.817 C 37.053 141.153,40.443 169.804,47.480 182.512 C 48.222 183.851,49.795 186.739,50.976 188.930 C 57.255 200.577,69.821 215.064,79.214 221.484 C 81.728 223.203,84.182 224.978,84.666 225.429 C 87.806 228.350,104.425 235.745,110.938 237.119 C 112.441 237.437,113.860 237.990,114.090 238.349 C 116.454 242.041,159.972 242.166,165.907 238.498 C 166.368 238.213,170.155 236.836,174.324 235.437 C 182.194 232.796,194.531 226.997,194.531 225.938 C 194.531 225.603,196.553 224.118,199.023 222.636 C 204.818 219.161,219.161 204.818,222.636 199.023 C 224.118 196.553,225.603 194.531,225.938 194.531 C 226.997 194.531,232.796 182.194,235.437 174.324 C 236.836 170.155,238.213 166.368,238.498 165.907 C 242.166 159.972,242.041 116.454,238.349 114.090 C 237.990 113.860,237.437 112.441,237.119 110.938 C 235.745 104.425,228.350 87.806,225.429 84.666 C 224.978 84.182,223.203 81.728,221.484 79.214 C 215.064 69.821,200.577 57.255,188.930 50.976 C 186.739 49.795,183.851 48.222,182.512 47.480 C 171.417 41.337,141.251 37.138,125.781 39.584 M159.503 55.727 C 168.858 58.120,178.609 61.760,179.688 63.262 C 179.902 63.561,182.188 64.951,184.766 66.352 C 191.841 70.196,208.594 85.063,208.594 87.498 C 208.594 87.847,209.822 89.604,211.323 91.401 C 214.675 95.412,219.628 105.675,221.934 113.387 C 222.880 116.552,223.937 119.504,224.283 119.949 C 227.294 123.818,227.250 153.948,224.224 160.547 C 223.830 161.406,222.572 164.922,221.429 168.359 C 213.290 192.838,192.838 213.290,168.359 221.429 C 164.922 222.572,161.406 223.830,160.547 224.224 C 153.832 227.303,125.357 227.312,119.675 224.237 C 118.952 223.845,116.070 222.825,113.272 221.969 C 105.637 219.633,95.351 214.654,91.528 211.444 C 89.661 209.876,87.847 208.594,87.498 208.594 C 85.063 208.594,70.196 191.841,66.352 184.766 C 64.951 182.188,63.561 179.902,63.262 179.688 C 61.713 178.575,57.650 167.359,55.338 157.813 C 51.564 142.233,56.310 108.373,63.496 99.609 C 63.848 99.180,65.956 95.891,68.180 92.301 C 73.312 84.016,84.207 73.159,92.578 67.987 C 96.016 65.863,99.180 63.839,99.609 63.490 C 108.928 55.917,142.990 51.502,159.503 55.727 M134.905 74.541 C 132.657 76.789,132.039 81.469,133.603 84.392 C 134.561 86.183,138.922 87.490,143.956 87.496 C 146.003 87.498,148.288 87.808,149.034 88.185 C 149.780 88.562,153.403 89.794,157.084 90.922 C 167.933 94.246,177.293 101.471,183.369 111.212 C 184.749 113.424,186.291 115.710,186.795 116.292 C 188.678 118.462,191.399 128.118,192.231 135.584 C 193.259 144.799,193.713 145.794,197.346 146.797 C 205.079 148.933,207.978 144.828,206.948 133.203 C 204.604 106.742,185.263 82.753,160.938 76.137 C 158.145 75.377,155.421 74.417,154.885 74.003 C 152.214 71.939,137.100 72.346,134.905 74.541 M298.013 282.439 C 325.746 310.164,348.433 333.103,348.428 333.416 C 348.423 333.728,345.089 337.294,341.021 341.338 L 333.623 348.692 329.214 344.522 C 319.446 335.283,232.031 247.528,232.031 246.960 C 232.031 246.624,233.701 245.004,235.742 243.359 C 237.783 241.714,241.020 238.492,242.934 236.200 C 244.849 233.907,246.679 232.031,247.002 232.031 C 247.324 232.031,270.279 254.715,298.013 282.439 M371.218 355.539 L 382.134 366.546 378.372 370.578 C 376.302 372.795,372.810 376.288,370.611 378.340 L 366.613 382.070 355.453 371.051 L 344.293 360.032 352.015 352.282 C 356.262 348.019,359.863 344.531,360.019 344.531 C 360.174 344.531,365.214 349.485,371.218 355.539 " stroke="none" fill="#6cb4b0" fill-rule="evenodd"></path></g></svg>