<svg id="svg" xmlns="http://www.w3.org/2000/svg" xmlns:xlink="http://www.w3.org/1999/xlink" width="400" height="400" viewBox="0, 0, 400,400"><g id="svgg"><path id="path0" d="M135.036 100.251 C 134.831 100.783,134.425 100.853,132.793 100.637 C 131.132 100.416,130.800 100.478,130.800 101.004 C 130.800 101.509,130.520 101.584,129.413 101.376 C 128.001 101.111,126.800 101.772,126.800 102.815 C 126.800 103.108,126.451 103.199,125.879 103.056 C 125.238 102.895,124.787 103.064,124.391 103.612 C 124.079 104.046,123.515 104.400,123.139 104.400 C 122.762 104.400,122.345 104.743,122.212 105.162 C 121.893 106.169,118.542 109.501,117.526 109.824 C 116.998 109.991,116.792 110.324,116.918 110.807 C 117.053 111.323,116.833 111.605,116.165 111.773 C 115.361 111.975,115.257 112.186,115.461 113.205 C 115.648 114.139,115.558 114.400,115.050 114.400 C 114.644 114.400,114.398 114.738,114.394 115.300 C 114.389 116.042,114.315 116.095,113.970 115.600 C 113.666 115.163,113.623 115.462,113.812 116.700 C 114.024 118.095,113.956 118.400,113.435 118.400 C 112.723 118.400,112.578 119.618,113.215 120.255 C 113.741 120.781,112.985 122.961,112.401 122.600 C 112.136 122.437,112.000 126.976,112.000 135.969 L 112.000 149.585 163.900 149.693 L 215.800 149.800 218.086 150.922 C 220.343 152.031,223.600 155.181,223.600 156.256 C 223.600 156.555,223.780 156.800,224.000 156.800 C 224.220 156.800,224.400 157.149,224.400 157.576 C 224.400 158.003,224.580 158.464,224.800 158.600 C 225.638 159.118,225.264 165.433,224.261 167.689 C 223.063 170.384,220.384 173.063,217.689 174.261 L 215.577 175.200 163.789 175.200 L 112.000 175.200 112.000 246.400 C 112.000 319.921,111.991 319.479,113.400 317.200 C 113.536 316.980,114.087 316.800,114.624 316.800 C 115.161 316.800,115.600 316.620,115.600 316.400 C 115.600 316.180,116.140 316.000,116.800 316.000 C 117.460 316.000,118.000 315.820,118.000 315.600 C 118.000 315.380,118.540 315.200,119.200 315.200 C 119.860 315.200,120.400 315.020,120.400 314.800 C 120.400 314.580,120.940 314.400,121.600 314.400 C 122.260 314.400,122.800 314.220,122.800 314.000 C 122.800 313.780,123.340 313.600,124.000 313.600 C 124.660 313.600,125.200 313.420,125.200 313.200 C 125.200 312.980,125.740 312.800,126.400 312.800 C 127.060 312.800,127.600 312.620,127.600 312.400 C 127.600 312.180,128.140 312.000,128.800 312.000 C 129.460 312.000,130.000 311.820,130.000 311.600 C 130.000 311.380,130.450 311.200,131.000 311.200 C 131.550 311.200,132.000 311.020,132.000 310.800 C 132.000 310.580,132.540 310.400,133.200 310.400 C 133.860 310.400,134.400 310.220,134.400 310.000 C 134.400 309.780,134.940 309.600,135.600 309.600 C 136.260 309.600,136.800 309.420,136.800 309.200 C 136.800 308.980,137.340 308.800,138.000 308.800 C 138.660 308.800,139.200 308.625,139.200 308.410 C 139.200 308.190,139.723 308.125,140.400 308.260 C 141.333 308.447,141.600 308.358,141.600 307.860 C 141.600 307.362,141.867 307.273,142.800 307.460 C 143.733 307.647,144.000 307.558,144.000 307.060 C 144.000 306.562,144.267 306.473,145.200 306.660 C 146.133 306.847,146.400 306.758,146.400 306.260 C 146.400 305.760,146.667 305.673,147.618 305.864 C 148.521 306.044,148.805 305.968,148.718 305.566 C 148.634 305.181,148.974 305.059,149.899 305.143 C 150.926 305.236,151.149 305.132,150.964 304.649 C 150.771 304.148,150.987 304.081,152.173 304.273 C 153.395 304.471,153.578 304.407,153.366 303.855 C 153.157 303.310,153.320 303.244,154.358 303.452 C 155.333 303.647,155.600 303.563,155.600 303.060 C 155.600 302.562,155.867 302.473,156.800 302.660 C 157.693 302.839,158.000 302.751,158.000 302.319 C 158.000 301.902,158.337 301.788,159.200 301.915 C 160.071 302.042,160.400 301.929,160.400 301.501 C 160.400 301.088,160.699 300.968,161.395 301.101 C 162.037 301.224,162.470 301.083,162.615 300.705 C 162.759 300.330,163.193 300.186,163.820 300.306 C 164.387 300.414,164.800 300.305,164.800 300.047 C 164.800 299.801,165.340 299.600,166.000 299.600 C 166.791 299.600,167.200 299.399,167.200 299.010 C 167.200 298.568,167.501 298.480,168.400 298.660 C 169.333 298.847,169.600 298.758,169.600 298.260 C 169.600 297.762,169.867 297.673,170.800 297.860 C 171.733 298.047,172.000 297.958,172.000 297.460 C 172.000 296.962,172.267 296.873,173.200 297.060 C 174.115 297.243,174.400 297.155,174.400 296.687 C 174.400 296.260,174.657 296.142,175.251 296.297 C 175.787 296.438,176.230 296.290,176.450 295.897 C 176.670 295.504,177.112 295.356,177.650 295.497 C 178.181 295.636,178.629 295.492,178.841 295.113 C 179.058 294.725,179.543 294.577,180.190 294.700 C 180.782 294.813,181.200 294.709,181.200 294.447 C 181.200 294.201,181.740 294.000,182.400 294.000 C 183.060 294.000,183.600 293.820,183.600 293.600 C 183.600 293.380,184.140 293.200,184.800 293.200 C 185.460 293.200,186.000 293.020,186.000 292.800 C 186.000 292.580,186.540 292.400,187.200 292.400 C 187.860 292.400,188.400 292.220,188.400 292.000 C 188.400 291.780,188.940 291.600,189.600 291.600 C 190.260 291.600,190.800 291.425,190.800 291.210 C 190.800 290.989,191.325 290.925,192.007 291.061 C 193.028 291.266,193.174 291.198,192.954 290.623 C 192.727 290.033,192.885 289.980,194.151 290.217 C 195.413 290.454,195.575 290.400,195.351 289.817 C 195.128 289.234,195.289 289.180,196.551 289.417 C 197.702 289.633,197.965 289.574,197.798 289.139 C 197.632 288.707,198.111 288.587,199.993 288.587 C 201.744 288.587,202.400 288.734,202.400 289.125 C 202.400 289.515,202.730 289.591,203.600 289.400 C 204.538 289.194,204.800 289.274,204.800 289.768 C 204.800 290.521,205.642 290.598,206.333 289.907 C 206.724 289.516,206.875 289.599,207.060 290.307 C 207.316 291.286,207.981 291.459,208.707 290.733 C 209.063 290.377,209.235 290.425,209.430 290.933 C 209.587 291.343,210.132 291.600,210.843 291.600 C 211.479 291.600,212.000 291.801,212.000 292.047 C 212.000 292.311,212.421 292.413,213.032 292.296 C 213.687 292.171,214.140 292.300,214.274 292.649 C 214.391 292.952,214.916 293.200,215.443 293.200 C 215.969 293.200,216.400 293.403,216.400 293.650 C 216.400 293.937,216.836 294.013,217.600 293.860 C 218.531 293.674,218.800 293.763,218.800 294.257 C 218.800 294.722,219.072 294.841,219.810 294.700 C 220.457 294.577,220.942 294.725,221.159 295.113 C 221.375 295.499,221.818 295.636,222.374 295.491 C 222.944 295.342,223.329 295.471,223.479 295.861 C 223.634 296.266,224.017 296.382,224.663 296.220 C 225.327 296.053,225.692 296.175,225.863 296.620 C 226.034 297.065,226.399 297.187,227.063 297.020 C 227.727 296.853,228.092 296.975,228.263 297.420 C 228.434 297.865,228.799 297.987,229.463 297.820 C 230.127 297.653,230.492 297.775,230.663 298.220 C 230.833 298.663,231.199 298.787,231.854 298.622 C 232.561 298.445,232.800 298.551,232.800 299.042 C 232.800 299.560,233.056 299.649,234.000 299.460 C 234.933 299.273,235.200 299.362,235.200 299.860 C 235.200 300.358,235.467 300.447,236.400 300.260 C 237.329 300.074,237.600 300.163,237.600 300.653 C 237.600 301.131,237.849 301.224,238.609 301.034 C 239.330 300.853,239.688 300.963,239.863 301.420 C 240.034 301.865,240.399 301.987,241.063 301.820 C 241.727 301.653,242.092 301.775,242.263 302.220 C 242.433 302.663,242.799 302.787,243.454 302.622 C 244.161 302.445,244.400 302.551,244.400 303.042 C 244.400 303.560,244.656 303.649,245.600 303.460 C 246.522 303.276,246.800 303.364,246.800 303.842 C 246.800 304.325,247.068 304.405,248.000 304.200 C 248.957 303.990,249.200 304.071,249.200 304.600 C 249.200 305.129,249.443 305.210,250.400 305.000 C 251.357 304.790,251.600 304.871,251.600 305.400 C 251.600 305.929,251.843 306.010,252.800 305.800 C 253.757 305.590,254.000 305.671,254.000 306.200 C 254.000 306.736,254.242 306.810,255.260 306.587 C 256.346 306.348,256.483 306.406,256.255 307.000 C 256.024 307.604,256.174 307.656,257.449 307.417 C 258.715 307.180,258.873 307.233,258.646 307.823 C 258.426 308.398,258.572 308.466,259.593 308.261 C 260.275 308.125,260.800 308.189,260.800 308.410 C 260.800 308.625,261.340 308.800,262.000 308.800 C 262.660 308.800,263.200 308.980,263.200 309.200 C 263.200 309.420,263.740 309.600,264.400 309.600 C 265.060 309.600,265.600 309.780,265.600 310.000 C 265.600 310.220,266.140 310.400,266.800 310.400 C 267.460 310.400,268.000 310.580,268.000 310.800 C 268.000 311.020,268.540 311.200,269.200 311.200 C 269.860 311.200,270.400 311.401,270.400 311.647 C 270.400 311.909,270.818 312.013,271.410 311.900 C 272.057 311.777,272.542 311.925,272.759 312.313 C 272.971 312.692,273.419 312.836,273.950 312.697 C 274.488 312.556,274.930 312.704,275.150 313.097 C 275.370 313.490,275.813 313.638,276.349 313.497 C 276.941 313.343,277.200 313.460,277.200 313.883 C 277.200 314.331,277.516 314.444,278.400 314.315 C 279.263 314.188,279.600 314.302,279.600 314.719 C 279.600 315.151,279.907 315.239,280.800 315.060 C 281.733 314.873,282.000 314.962,282.000 315.460 C 282.000 315.958,282.267 316.047,283.200 315.860 C 284.131 315.674,284.400 315.763,284.400 316.257 C 284.400 316.725,284.672 316.841,285.432 316.696 C 286.087 316.571,286.540 316.700,286.674 317.049 C 287.989 320.475,288.000 319.667,288.000 220.000 C 288.000 142.133,287.899 122.420,287.500 122.500 C 287.142 122.572,287.025 122.002,287.087 120.500 C 287.156 118.829,287.047 118.400,286.552 118.400 C 286.048 118.400,285.981 118.097,286.200 116.800 C 286.378 115.748,286.321 115.200,286.035 115.200 C 285.796 115.200,285.600 114.840,285.600 114.400 C 285.600 113.960,285.420 113.600,285.200 113.600 C 284.980 113.600,284.800 113.252,284.800 112.827 C 284.800 112.402,284.440 111.940,284.000 111.800 C 283.560 111.660,283.200 111.210,283.200 110.800 C 283.200 110.390,282.857 109.945,282.438 109.812 C 281.450 109.498,278.102 106.150,277.788 105.162 C 277.655 104.743,277.238 104.400,276.861 104.400 C 276.485 104.400,275.921 104.046,275.609 103.612 C 275.213 103.064,274.762 102.895,274.121 103.056 C 273.549 103.199,273.200 103.108,273.200 102.815 C 273.200 101.772,271.999 101.111,270.587 101.376 C 269.480 101.584,269.200 101.509,269.200 101.004 C 269.200 100.478,268.868 100.416,267.207 100.637 C 265.575 100.853,265.169 100.783,264.964 100.251 C 264.580 99.249,135.420 99.249,135.036 100.251 " stroke="none" fill="#fc7464" fill-rule="evenodd"></path><path id="path1" d="M112.000 162.600 L 112.000 174.800 162.672 174.800 C 215.597 174.800,214.189 174.844,217.947 173.057 C 221.724 171.261,225.460 165.079,224.672 161.933 C 224.543 161.420,224.322 160.460,224.179 159.800 C 223.820 158.138,223.065 156.400,222.702 156.400 C 222.536 156.400,222.400 156.144,222.400 155.831 C 222.400 155.138,219.450 152.552,217.800 151.799 C 214.814 150.436,213.565 150.404,162.700 150.402 L 112.000 150.400 112.000 162.600 " stroke="none" fill="#fcfbfb" fill-rule="evenodd"></path><path id="path2" d="M163.400 150.396 C 191.780 150.508,215.360 150.754,215.800 150.943 C 218.498 152.099,219.167 152.489,220.700 153.804 C 221.635 154.606,222.400 155.518,222.400 155.831 C 222.400 156.144,222.586 156.400,222.814 156.400 C 223.869 156.400,220.487 152.717,218.414 151.607 C 215.384 149.986,216.066 150.005,162.800 150.100 L 111.800 150.191 163.400 150.396 M224.034 159.200 C 224.022 159.750,224.187 160.470,224.400 160.800 C 224.909 161.587,224.909 160.184,224.400 159.000 C 224.085 158.267,224.054 158.284,224.034 159.200 M224.232 165.000 C 223.105 169.568,219.568 173.105,215.000 174.232 C 214.158 174.440,214.009 174.577,214.500 174.693 C 217.702 175.450,225.449 167.737,224.701 164.537 C 224.571 163.985,224.454 164.101,224.232 165.000 " stroke="none" fill="#fce4dc" fill-rule="evenodd"></path><path id="path3" d="M132.400 100.000 C 132.400 100.220,132.760 100.400,133.200 100.400 C 133.640 100.400,134.000 100.220,134.000 100.000 C 134.000 99.780,133.640 99.600,133.200 99.600 C 132.760 99.600,132.400 99.780,132.400 100.000 M266.000 100.000 C 266.000 100.220,266.360 100.400,266.800 100.400 C 267.240 100.400,267.600 100.220,267.600 100.000 C 267.600 99.780,267.240 99.600,266.800 99.600 C 266.360 99.600,266.000 99.780,266.000 100.000 M129.200 100.800 C 129.200 101.020,129.470 101.200,129.800 101.200 C 130.130 101.200,130.400 101.020,130.400 100.800 C 130.400 100.580,130.130 100.400,129.800 100.400 C 129.470 100.400,129.200 100.580,129.200 100.800 M269.600 100.800 C 269.600 101.020,269.870 101.200,270.200 101.200 C 270.530 101.200,270.800 101.020,270.800 100.800 C 270.800 100.580,270.530 100.400,270.200 100.400 C 269.870 100.400,269.600 100.580,269.600 100.800 M273.600 102.400 C 273.600 102.620,273.870 102.800,274.200 102.800 C 274.530 102.800,274.800 102.620,274.800 102.400 C 274.800 102.180,274.530 102.000,274.200 102.000 C 273.870 102.000,273.600 102.180,273.600 102.400 M120.493 106.000 C 120.218 106.440,120.098 106.800,120.225 106.800 C 120.525 106.800,121.600 105.727,121.600 105.429 C 121.600 104.920,120.962 105.249,120.493 106.000 M118.229 108.229 C 117.805 108.538,117.572 108.905,117.710 109.043 C 117.849 109.182,118.262 108.995,118.629 108.629 C 119.491 107.766,119.225 107.500,118.229 108.229 M114.656 113.078 C 114.205 113.528,114.381 114.000,115.000 114.000 C 115.330 114.000,115.600 113.831,115.600 113.624 C 115.600 113.119,114.975 112.758,114.656 113.078 M112.800 117.400 C 112.800 117.767,112.993 118.002,113.230 117.923 C 113.466 117.844,113.660 117.609,113.660 117.400 C 113.660 117.191,113.466 116.956,113.230 116.877 C 112.993 116.798,112.800 117.033,112.800 117.400 M286.400 117.400 C 286.400 117.730,286.580 118.000,286.800 118.000 C 287.020 118.000,287.200 117.730,287.200 117.400 C 287.200 117.070,287.020 116.800,286.800 116.800 C 286.580 116.800,286.400 117.070,286.400 117.400 M112.000 120.800 C 112.000 121.316,112.203 121.599,112.500 121.500 C 112.775 121.408,113.000 121.093,113.000 120.800 C 113.000 120.507,112.775 120.192,112.500 120.100 C 112.203 120.001,112.000 120.284,112.000 120.800 M287.000 120.400 C 286.708 120.872,287.087 121.600,287.624 121.600 C 287.831 121.600,288.000 121.240,288.000 120.800 C 288.000 119.956,287.418 119.724,287.000 120.400 M215.000 150.400 C 216.196 150.914,217.195 150.914,216.400 150.400 C 216.070 150.187,215.440 150.022,215.000 150.034 L 214.200 150.056 215.000 150.400 M218.400 151.641 C 219.170 152.101,220.520 153.136,221.400 153.939 L 223.000 155.400 221.400 153.667 C 220.520 152.714,219.314 151.679,218.720 151.367 C 217.060 150.496,216.824 150.698,218.400 151.641 M222.990 155.901 C 224.181 158.206,224.394 158.526,224.389 158.000 C 224.385 157.670,224.011 156.950,223.556 156.400 C 223.102 155.850,222.847 155.626,222.990 155.901 M224.704 161.508 C 224.905 165.367,225.101 165.849,225.147 162.600 C 225.170 161.060,225.047 159.579,224.875 159.308 C 224.704 159.038,224.626 160.028,224.704 161.508 M223.520 168.116 C 222.528 170.197,220.848 171.956,218.645 173.220 C 217.520 173.865,216.790 174.394,217.022 174.396 C 218.919 174.413,225.268 167.934,224.301 166.968 C 224.214 166.881,223.863 167.398,223.520 168.116 M137.700 175.100 C 151.945 175.158,175.255 175.158,189.500 175.100 C 203.745 175.042,192.090 174.994,163.600 174.994 C 135.110 174.994,123.455 175.042,137.700 175.100 " stroke="none" fill="#fca49c" fill-rule="evenodd"></path><path id="path4" d="M134.000 99.972 C 134.000 100.177,133.595 100.430,133.100 100.534 C 132.602 100.639,132.812 100.696,133.569 100.662 C 134.899 100.602,135.903 99.600,134.633 99.600 C 134.285 99.600,134.000 99.767,134.000 99.972 M264.897 100.100 C 264.988 100.375,265.678 100.628,266.431 100.662 C 267.188 100.696,267.398 100.639,266.900 100.534 C 266.405 100.430,266.000 100.177,266.000 99.972 C 266.000 99.767,265.715 99.600,265.367 99.600 C 265.018 99.600,264.807 99.825,264.897 100.100 M121.208 105.989 C 120.886 106.435,120.303 106.800,119.912 106.800 C 119.520 106.800,119.200 107.094,119.200 107.453 C 119.200 107.812,118.812 108.442,118.339 108.853 C 117.865 109.264,117.661 109.600,117.886 109.600 C 118.451 109.600,122.051 105.952,121.908 105.524 C 121.845 105.334,121.530 105.543,121.208 105.989 M278.032 105.447 C 277.991 106.016,281.555 109.602,282.153 109.594 C 282.465 109.590,282.458 109.498,282.132 109.290 C 281.875 109.126,281.605 108.728,281.532 108.406 C 281.360 107.642,280.572 106.800,280.029 106.800 C 279.793 106.800,279.600 106.620,279.600 106.400 C 279.600 106.180,279.345 106.000,279.033 106.000 C 278.722 106.000,278.376 105.775,278.265 105.500 C 278.141 105.193,278.051 105.173,278.032 105.447 M116.210 110.784 C 115.871 111.333,116.171 111.745,116.762 111.542 C 117.004 111.458,117.035 111.176,116.837 110.857 C 116.587 110.455,116.425 110.436,116.210 110.784 M286.032 117.500 C 286.010 118.105,286.230 118.398,286.700 118.394 C 287.132 118.390,287.231 118.275,286.960 118.094 C 286.718 117.932,286.417 117.530,286.292 117.200 C 286.139 116.799,286.053 116.899,286.032 117.500 M113.002 120.361 C 113.208 120.721,113.058 121.114,112.583 121.462 C 112.022 121.872,111.955 122.115,112.307 122.467 C 112.658 122.818,112.874 122.657,113.200 121.800 C 113.518 120.965,113.506 120.556,113.156 120.235 C 112.804 119.911,112.765 119.944,113.002 120.361 M286.871 121.823 C 287.013 122.507,287.707 122.679,287.907 122.079 C 287.977 121.870,287.743 121.587,287.388 121.451 C 286.942 121.280,286.782 121.395,286.871 121.823 M137.500 149.900 C 151.635 149.958,174.765 149.958,188.900 149.900 C 203.035 149.842,191.470 149.794,163.200 149.794 C 134.930 149.794,123.365 149.842,137.500 149.900 M221.200 153.400 C 221.946 154.170,222.647 154.800,222.757 154.800 C 222.867 154.800,222.346 154.170,221.600 153.400 C 220.854 152.630,220.153 152.000,220.043 152.000 C 219.933 152.000,220.454 152.630,221.200 153.400 M197.692 288.875 C 197.939 289.617,198.800 289.740,198.800 289.033 C 198.800 288.685,198.515 288.400,198.167 288.400 C 197.818 288.400,197.605 288.614,197.692 288.875 M195.200 289.557 C 195.200 289.754,195.470 290.018,195.800 290.145 C 196.165 290.285,196.400 290.145,196.400 289.787 C 196.400 289.464,196.130 289.200,195.800 289.200 C 195.470 289.200,195.200 289.361,195.200 289.557 M206.270 289.893 C 206.168 290.062,206.335 290.432,206.642 290.716 C 207.100 291.139,207.200 291.126,207.200 290.639 C 207.200 289.960,206.547 289.436,206.270 289.893 M192.892 290.475 C 193.139 291.217,194.000 291.340,194.000 290.633 C 194.000 290.285,193.715 290.000,193.367 290.000 C 193.018 290.000,192.805 290.214,192.892 290.475 M188.400 292.000 C 188.400 292.220,188.670 292.400,189.000 292.400 C 189.330 292.400,189.600 292.220,189.600 292.000 C 189.600 291.780,189.330 291.600,189.000 291.600 C 188.670 291.600,188.400 291.780,188.400 292.000 M186.000 292.800 C 186.000 293.020,186.270 293.200,186.600 293.200 C 186.930 293.200,187.200 293.020,187.200 292.800 C 187.200 292.580,186.930 292.400,186.600 292.400 C 186.270 292.400,186.000 292.580,186.000 292.800 M183.600 293.600 C 183.600 293.820,183.870 294.000,184.200 294.000 C 184.530 294.000,184.800 293.820,184.800 293.600 C 184.800 293.380,184.530 293.200,184.200 293.200 C 183.870 293.200,183.600 293.380,183.600 293.600 M181.200 294.400 C 181.200 294.620,181.470 294.800,181.800 294.800 C 182.130 294.800,182.400 294.620,182.400 294.400 C 182.400 294.180,182.130 294.000,181.800 294.000 C 181.470 294.000,181.200 294.180,181.200 294.400 M179.056 294.678 C 178.605 295.128,178.781 295.600,179.400 295.600 C 179.730 295.600,180.000 295.431,180.000 295.224 C 180.000 294.719,179.375 294.358,179.056 294.678 M176.656 295.478 C 176.205 295.928,176.381 296.400,177.000 296.400 C 177.330 296.400,177.600 296.231,177.600 296.024 C 177.600 295.519,176.975 295.158,176.656 295.478 M172.000 297.367 C 172.000 297.715,172.285 298.000,172.633 298.000 C 173.340 298.000,173.217 297.139,172.475 296.892 C 172.214 296.805,172.000 297.018,172.000 297.367 M169.600 298.200 C 169.600 298.567,169.793 298.802,170.030 298.723 C 170.267 298.645,170.460 298.409,170.460 298.200 C 170.460 297.991,170.267 297.755,170.030 297.677 C 169.793 297.598,169.600 297.833,169.600 298.200 M229.843 298.167 C 229.976 298.515,230.261 298.800,230.476 298.800 C 231.002 298.800,230.673 297.891,230.075 297.692 C 229.782 297.594,229.693 297.777,229.843 298.167 M167.200 299.000 C 167.200 299.367,167.394 299.602,167.630 299.523 C 167.867 299.445,168.060 299.209,168.060 299.000 C 168.060 298.791,167.867 298.555,167.630 298.477 C 167.394 298.398,167.200 298.633,167.200 299.000 M234.267 299.467 C 233.806 299.927,233.975 300.400,234.600 300.400 C 234.930 300.400,235.200 300.130,235.200 299.800 C 235.200 299.175,234.727 299.006,234.267 299.467 M164.800 300.000 C 164.800 300.220,165.070 300.400,165.400 300.400 C 165.730 300.400,166.000 300.220,166.000 300.000 C 166.000 299.780,165.730 299.600,165.400 299.600 C 165.070 299.600,164.800 299.780,164.800 300.000 M162.654 300.602 C 162.515 300.965,162.656 301.200,163.013 301.200 C 163.660 301.200,163.807 300.575,163.242 300.226 C 163.045 300.104,162.781 300.274,162.654 300.602 M236.678 300.256 C 236.358 300.575,236.719 301.200,237.224 301.200 C 237.431 301.200,237.600 300.930,237.600 300.600 C 237.600 299.981,237.128 299.805,236.678 300.256 M238.800 301.367 C 238.800 301.715,239.085 302.000,239.433 302.000 C 240.140 302.000,240.017 301.139,239.275 300.892 C 239.014 300.805,238.800 301.018,238.800 301.367 M241.200 302.167 C 241.200 302.515,241.485 302.800,241.833 302.800 C 242.540 302.800,242.417 301.939,241.675 301.692 C 241.414 301.605,241.200 301.818,241.200 302.167 M155.600 303.000 C 155.600 303.367,155.793 303.602,156.030 303.523 C 156.267 303.445,156.460 303.209,156.460 303.000 C 156.460 302.791,156.267 302.555,156.030 302.477 C 155.793 302.398,155.600 302.633,155.600 303.000 M153.260 303.580 C 153.348 303.844,153.551 304.047,153.710 304.030 C 154.188 303.981,154.096 303.432,153.580 303.260 C 153.316 303.172,153.172 303.316,153.260 303.580 M150.875 304.425 C 150.971 304.714,151.286 305.029,151.575 305.125 C 151.875 305.225,152.025 305.075,151.925 304.775 C 151.829 304.486,151.514 304.171,151.225 304.075 C 150.925 303.975,150.775 304.125,150.875 304.425 M248.000 304.533 C 248.000 304.827,248.270 305.067,248.600 305.067 C 248.930 305.067,249.200 304.827,249.200 304.533 C 249.200 304.240,248.930 304.000,248.600 304.000 C 248.270 304.000,248.000 304.240,248.000 304.533 M148.639 305.138 C 148.500 305.361,148.582 305.665,148.820 305.812 C 149.435 306.193,149.832 305.672,149.318 305.158 C 149.031 304.871,148.807 304.864,148.639 305.138 M250.400 305.400 C 250.400 305.730,250.670 306.000,251.000 306.000 C 251.330 306.000,251.600 305.730,251.600 305.400 C 251.600 305.070,251.330 304.800,251.000 304.800 C 250.670 304.800,250.400 305.070,250.400 305.400 M146.400 306.200 C 146.400 306.530,146.580 306.800,146.800 306.800 C 147.020 306.800,147.200 306.530,147.200 306.200 C 147.200 305.870,147.020 305.600,146.800 305.600 C 146.580 305.600,146.400 305.870,146.400 306.200 M252.800 306.200 C 252.800 306.530,253.070 306.800,253.400 306.800 C 253.730 306.800,254.000 306.530,254.000 306.200 C 254.000 305.870,253.730 305.600,253.400 305.600 C 253.070 305.600,252.800 305.870,252.800 306.200 M255.200 307.033 C 255.200 307.382,255.414 307.595,255.675 307.508 C 256.417 307.261,256.540 306.400,255.833 306.400 C 255.485 306.400,255.200 306.685,255.200 307.033 M141.600 307.800 C 141.600 308.130,141.780 308.400,142.000 308.400 C 142.220 308.400,142.400 308.130,142.400 307.800 C 142.400 307.470,142.220 307.200,142.000 307.200 C 141.780 307.200,141.600 307.470,141.600 307.800 M257.600 307.787 C 257.600 308.145,257.835 308.285,258.200 308.145 C 258.530 308.018,258.800 307.754,258.800 307.557 C 258.800 307.361,258.530 307.200,258.200 307.200 C 257.870 307.200,257.600 307.464,257.600 307.787 M136.800 309.200 C 136.800 309.420,137.070 309.600,137.400 309.600 C 137.730 309.600,138.000 309.420,138.000 309.200 C 138.000 308.980,137.730 308.800,137.400 308.800 C 137.070 308.800,136.800 308.980,136.800 309.200 M262.000 309.200 C 262.000 309.420,262.270 309.600,262.600 309.600 C 262.930 309.600,263.200 309.420,263.200 309.200 C 263.200 308.980,262.930 308.800,262.600 308.800 C 262.270 308.800,262.000 308.980,262.000 309.200 M134.400 310.000 C 134.400 310.220,134.670 310.400,135.000 310.400 C 135.330 310.400,135.600 310.220,135.600 310.000 C 135.600 309.780,135.330 309.600,135.000 309.600 C 134.670 309.600,134.400 309.780,134.400 310.000 M264.400 310.000 C 264.400 310.220,264.670 310.400,265.000 310.400 C 265.330 310.400,265.600 310.220,265.600 310.000 C 265.600 309.780,265.330 309.600,265.000 309.600 C 264.670 309.600,264.400 309.780,264.400 310.000 M132.000 310.800 C 132.000 311.020,132.270 311.200,132.600 311.200 C 132.930 311.200,133.200 311.020,133.200 310.800 C 133.200 310.580,132.930 310.400,132.600 310.400 C 132.270 310.400,132.000 310.580,132.000 310.800 M266.800 310.800 C 266.800 311.020,267.070 311.200,267.400 311.200 C 267.730 311.200,268.000 311.020,268.000 310.800 C 268.000 310.580,267.730 310.400,267.400 310.400 C 267.070 310.400,266.800 310.580,266.800 310.800 M269.200 311.600 C 269.200 311.820,269.470 312.000,269.800 312.000 C 270.130 312.000,270.400 311.820,270.400 311.600 C 270.400 311.380,270.130 311.200,269.800 311.200 C 269.470 311.200,269.200 311.380,269.200 311.600 M271.856 311.878 C 271.405 312.328,271.581 312.800,272.200 312.800 C 272.530 312.800,272.800 312.631,272.800 312.424 C 272.800 311.919,272.175 311.558,271.856 311.878 M274.256 312.678 C 273.805 313.128,273.981 313.600,274.600 313.600 C 274.930 313.600,275.200 313.431,275.200 313.224 C 275.200 312.719,274.575 312.358,274.256 312.678 M122.800 314.000 C 122.800 314.220,123.070 314.400,123.400 314.400 C 123.730 314.400,124.000 314.220,124.000 314.000 C 124.000 313.780,123.730 313.600,123.400 313.600 C 123.070 313.600,122.800 313.780,122.800 314.000 M278.900 314.265 C 278.204 314.546,278.273 315.200,279.000 315.200 C 279.330 315.200,279.600 314.930,279.600 314.600 C 279.600 314.270,279.555 314.014,279.500 314.032 C 279.445 314.049,279.175 314.154,278.900 314.265 M120.400 314.800 C 120.400 315.020,120.670 315.200,121.000 315.200 C 121.330 315.200,121.600 315.020,121.600 314.800 C 121.600 314.580,121.330 314.400,121.000 314.400 C 120.670 314.400,120.400 314.580,120.400 314.800 M281.067 315.067 C 280.606 315.527,280.775 316.000,281.400 316.000 C 281.730 316.000,282.000 315.730,282.000 315.400 C 282.000 314.775,281.527 314.606,281.067 315.067 M118.000 315.600 C 118.000 315.820,118.270 316.000,118.600 316.000 C 118.930 316.000,119.200 315.820,119.200 315.600 C 119.200 315.380,118.930 315.200,118.600 315.200 C 118.270 315.200,118.000 315.380,118.000 315.600 M283.478 315.856 C 283.158 316.175,283.519 316.800,284.024 316.800 C 284.231 316.800,284.400 316.530,284.400 316.200 C 284.400 315.581,283.928 315.405,283.478 315.856 M115.600 316.400 C 115.600 316.620,115.870 316.800,116.200 316.800 C 116.530 316.800,116.800 316.620,116.800 316.400 C 116.800 316.180,116.530 316.000,116.200 316.000 C 115.870 316.000,115.600 316.180,115.600 316.400 M285.839 316.738 C 285.700 316.961,285.782 317.265,286.020 317.412 C 286.635 317.793,287.032 317.272,286.518 316.758 C 286.231 316.471,286.007 316.464,285.839 316.738 " stroke="none" fill="#f49c8c" fill-rule="evenodd"></path></g></svg>