<svg id="svg" xmlns="http://www.w3.org/2000/svg" xmlns:xlink="http://www.w3.org/1999/xlink" width="400" height="400" viewBox="0, 0, 400,400"><g id="svgg"><path id="path0" d="M192.900 0.121 C 192.460 0.162,191.110 0.290,189.900 0.405 C 134.229 5.694,87.828 55.853,86.667 112.000 C 86.189 135.085,93.256 153.146,120.200 197.700 C 135.044 222.245,137.933 227.714,139.092 233.455 C 140.105 238.475,140.472 250.828,139.842 258.700 C 139.308 265.378,138.218 275.021,137.575 278.746 L 137.361 279.991 120.930 280.046 L 104.500 280.100 103.641 280.559 C 101.574 281.662,100.341 283.415,100.007 285.721 C 99.738 287.583,99.735 352.398,100.004 354.259 C 100.336 356.551,101.472 358.223,103.439 359.312 L 104.500 359.900 112.450 359.959 C 116.822 359.991,120.400 360.054,120.400 360.098 C 120.400 360.677,121.390 365.003,121.929 366.784 C 127.052 383.686,140.557 395.823,158.170 399.352 L 160.900 399.899 195.500 399.958 C 226.303 400.011,230.380 399.982,232.656 399.696 C 252.125 397.250,268.013 382.689,272.286 363.376 C 272.569 362.098,272.800 360.818,272.800 360.532 L 272.800 360.013 284.150 359.956 L 295.500 359.900 296.561 359.312 C 297.765 358.645,298.772 357.613,299.441 356.359 L 299.900 355.500 299.900 320.000 L 299.900 284.500 299.312 283.439 C 298.645 282.235,297.613 281.228,296.359 280.559 L 295.500 280.100 279.070 280.046 L 262.639 279.991 262.428 278.746 C 259.466 261.278,259.056 240.325,261.494 231.040 C 262.503 227.198,266.630 219.548,276.675 202.900 C 285.321 188.570,288.327 183.520,291.201 178.500 C 309.533 146.479,315.370 126.336,312.905 103.600 C 307.140 50.418,264.513 7.198,211.200 0.479 C 208.841 0.182,195.097 -0.087,192.900 0.121 M209.900 13.698 C 259.830 19.513,299.963 64.018,300.079 113.700 C 300.124 133.177,293.782 148.670,268.597 190.600 C 252.031 218.181,249.749 222.557,248.207 229.700 C 245.941 240.194,246.053 256.790,248.515 275.200 C 248.787 277.235,249.062 279.193,249.127 279.550 L 249.245 280.200 234.522 280.200 L 219.800 280.200 219.800 241.117 L 219.800 202.035 221.654 201.035 C 249.709 185.911,255.007 148.553,232.218 126.544 C 214.167 109.110,185.833 109.110,167.782 126.544 C 144.987 148.559,150.283 185.907,178.346 201.035 L 180.200 202.035 180.200 241.117 L 180.200 280.200 165.478 280.200 L 150.755 280.200 150.873 279.550 C 154.230 260.996,154.178 236.579,150.759 225.800 C 149.135 220.682,144.965 213.098,131.402 190.600 C 104.287 145.619,98.074 128.847,100.174 106.300 C 104.762 57.048,145.196 17.108,194.300 13.322 C 196.730 13.135,207.238 13.388,209.900 13.698 M206.700 127.198 C 232.647 132.714,242.379 164.444,223.928 183.370 C 212.696 194.891,194.773 196.740,181.270 187.771 C 166.113 177.703,162.018 156.642,172.229 141.270 C 179.513 130.304,193.826 124.461,206.700 127.198 M200.000 206.500 C 201.815 206.500,204.088 206.424,205.050 206.332 L 206.800 206.164 206.800 243.082 L 206.800 280.000 200.000 280.000 L 193.200 280.000 193.200 243.082 L 193.200 206.164 194.950 206.332 C 195.913 206.424,198.185 206.500,200.000 206.500 M286.600 320.000 L 286.600 346.600 200.000 346.600 L 113.400 346.600 113.400 336.602 L 113.400 326.604 154.350 326.552 L 195.300 326.500 196.300 325.970 C 200.330 323.833,201.210 318.487,198.053 315.317 C 197.639 314.901,196.850 314.322,196.300 314.030 L 195.300 313.500 154.350 313.448 L 113.400 313.396 113.400 303.398 L 113.400 293.400 200.000 293.400 L 286.600 293.400 286.600 320.000 M217.753 313.696 C 212.260 315.760,211.857 323.428,217.105 326.010 C 218.085 326.492,218.181 326.500,223.400 326.500 L 228.700 326.500 229.761 325.912 C 230.344 325.589,231.142 324.970,231.534 324.536 C 234.491 321.262,233.639 316.236,229.761 314.088 L 228.700 313.500 223.600 313.458 C 219.627 313.425,218.335 313.478,217.753 313.696 M258.882 361.850 C 255.648 374.089,245.946 383.214,233.155 386.045 L 231.100 386.500 196.800 386.500 L 162.500 386.500 160.254 386.045 C 147.461 383.452,136.619 372.924,134.102 360.650 L 133.968 360.000 196.670 360.000 L 259.371 360.000 258.882 361.850 " stroke="none" fill="#040404" fill-rule="evenodd"></path><path id="path1" d="M196.853 13.344 C 197.157 13.389,197.607 13.388,197.853 13.341 C 198.099 13.293,197.850 13.256,197.300 13.257 C 196.750 13.259,196.549 13.298,196.853 13.344 M202.253 13.344 C 202.557 13.389,203.007 13.388,203.253 13.341 C 203.499 13.293,203.250 13.256,202.700 13.257 C 202.150 13.259,201.949 13.298,202.253 13.344 M135.087 38.650 L 134.500 39.300 135.150 38.713 C 135.508 38.390,135.800 38.097,135.800 38.063 C 135.800 37.908,135.635 38.044,135.087 38.650 M264.200 38.063 C 264.200 38.097,264.493 38.390,264.850 38.713 L 265.500 39.300 264.913 38.650 C 264.365 38.044,264.200 37.908,264.200 38.063 M132.594 40.950 L 131.300 42.300 132.650 41.006 C 133.904 39.804,134.091 39.600,133.944 39.600 C 133.914 39.600,133.306 40.208,132.594 40.950 M267.200 40.900 C 267.909 41.615,268.533 42.200,268.588 42.200 C 268.643 42.200,268.109 41.615,267.400 40.900 C 266.691 40.185,266.067 39.600,266.012 39.600 C 265.957 39.600,266.491 40.185,267.200 40.900 M127.894 45.650 L 126.700 46.900 127.950 45.706 C 128.638 45.050,129.200 44.487,129.200 44.456 C 129.200 44.308,129.003 44.489,127.894 45.650 M271.900 45.600 C 272.553 46.260,273.132 46.800,273.187 46.800 C 273.242 46.800,272.753 46.260,272.100 45.600 C 271.447 44.940,270.868 44.400,270.813 44.400 C 270.758 44.400,271.247 44.940,271.900 45.600 M125.687 48.050 L 125.100 48.700 125.750 48.113 C 126.108 47.790,126.400 47.497,126.400 47.463 C 126.400 47.308,126.235 47.444,125.687 48.050 M273.600 47.463 C 273.600 47.497,273.893 47.790,274.250 48.113 L 274.900 48.700 274.313 48.050 C 273.765 47.444,273.600 47.308,273.600 47.463 M109.232 72.909 C 108.897 73.644,108.961 73.801,109.324 73.132 C 109.493 72.820,109.594 72.527,109.548 72.481 C 109.502 72.436,109.360 72.628,109.232 72.909 M290.414 72.500 C 290.414 72.610,290.543 72.925,290.700 73.200 C 290.857 73.475,290.986 73.610,290.986 73.500 C 290.986 73.390,290.857 73.075,290.700 72.800 C 290.543 72.525,290.414 72.390,290.414 72.500 M178.950 118.313 C 178.428 118.585,178.000 118.852,178.000 118.907 C 178.000 118.996,179.980 118.061,180.183 117.876 C 180.431 117.650,179.780 117.881,178.950 118.313 M219.817 117.876 C 220.021 118.062,222.000 118.996,222.000 118.907 C 222.000 118.794,220.090 117.800,219.873 117.800 C 219.796 117.800,219.771 117.834,219.817 117.876 M168.491 125.650 L 167.700 126.500 168.550 125.709 C 169.340 124.974,169.492 124.800,169.341 124.800 C 169.308 124.800,168.925 125.183,168.491 125.650 M231.300 125.600 C 231.730 126.040,232.126 126.400,232.181 126.400 C 232.236 126.400,231.930 126.040,231.500 125.600 C 231.070 125.160,230.674 124.800,230.619 124.800 C 230.564 124.800,230.870 125.160,231.300 125.600 M199.150 126.746 C 199.618 126.789,200.383 126.789,200.850 126.746 C 201.317 126.704,200.935 126.670,200.000 126.670 C 199.065 126.670,198.683 126.704,199.150 126.746 M165.600 128.500 C 165.114 128.995,164.762 129.400,164.817 129.400 C 164.872 129.400,165.314 128.995,165.800 128.500 C 166.286 128.005,166.638 127.600,166.583 127.600 C 166.528 127.600,166.086 128.005,165.600 128.500 M234.192 128.450 C 235.020 129.333,235.200 129.492,235.200 129.342 C 235.200 129.310,234.773 128.882,234.250 128.392 L 233.300 127.500 234.192 128.450 M289.432 153.109 C 289.097 153.844,289.161 154.001,289.524 153.332 C 289.693 153.020,289.794 152.727,289.748 152.681 C 289.702 152.636,289.560 152.828,289.432 153.109 M166.670 160.000 C 166.670 160.935,166.704 161.317,166.746 160.850 C 166.789 160.383,166.789 159.618,166.746 159.150 C 166.704 158.683,166.670 159.065,166.670 160.000 M233.269 159.900 C 233.269 160.780,233.304 161.115,233.347 160.645 C 233.389 160.174,233.388 159.454,233.345 159.045 C 233.302 158.635,233.268 159.020,233.269 159.900 M114.500 161.400 C 114.671 161.730,114.855 162.000,114.910 162.000 C 114.965 162.000,114.871 161.730,114.700 161.400 C 114.529 161.070,114.345 160.800,114.290 160.800 C 114.235 160.800,114.329 161.070,114.500 161.400 M285.300 161.400 C 285.129 161.730,285.035 162.000,285.090 162.000 C 285.145 162.000,285.329 161.730,285.500 161.400 C 285.671 161.070,285.765 160.800,285.710 160.800 C 285.655 160.800,285.471 161.070,285.300 161.400 M116.100 164.400 C 116.271 164.730,116.455 165.000,116.510 165.000 C 116.565 165.000,116.471 164.730,116.300 164.400 C 116.129 164.070,115.945 163.800,115.890 163.800 C 115.835 163.800,115.929 164.070,116.100 164.400 M157.800 179.673 C 157.800 179.890,158.794 181.800,158.907 181.800 C 158.962 181.800,158.769 181.328,158.479 180.750 C 157.921 179.639,157.800 179.447,157.800 179.673 M241.541 180.706 C 241.246 181.308,241.047 181.800,241.099 181.800 C 241.233 181.800,242.242 179.776,242.152 179.686 C 242.111 179.645,241.836 180.104,241.541 180.706 M167.000 192.900 C 167.597 193.505,168.131 194.000,168.186 194.000 C 168.241 194.000,167.797 193.505,167.200 192.900 C 166.603 192.295,166.069 191.800,166.014 191.800 C 165.959 191.800,166.403 192.295,167.000 192.900 M232.793 192.950 L 231.700 194.100 232.850 193.007 C 233.918 191.991,234.092 191.800,233.943 191.800 C 233.912 191.800,233.394 192.317,232.793 192.950 M199.155 193.347 C 199.626 193.389,200.346 193.388,200.755 193.345 C 201.165 193.302,200.780 193.268,199.900 193.269 C 199.020 193.269,198.685 193.304,199.155 193.347 M168.800 194.463 C 168.800 194.497,169.093 194.790,169.450 195.113 L 170.100 195.700 169.513 195.050 C 168.965 194.444,168.800 194.308,168.800 194.463 M230.487 195.050 L 229.900 195.700 230.550 195.113 C 231.156 194.565,231.292 194.400,231.137 194.400 C 231.103 194.400,230.810 194.692,230.487 195.050 M219.933 201.933 C 219.860 202.007,219.800 219.647,219.800 241.133 L 219.800 280.200 234.450 280.151 L 249.100 280.103 234.549 280.050 L 219.998 279.997 220.049 240.899 C 220.077 219.394,220.093 201.800,220.083 201.800 C 220.074 201.800,220.007 201.860,219.933 201.933 M147.100 217.600 C 147.271 217.930,147.455 218.200,147.510 218.200 C 147.565 218.200,147.471 217.930,147.300 217.600 C 147.129 217.270,146.945 217.000,146.890 217.000 C 146.835 217.000,146.929 217.270,147.100 217.600 M252.700 217.600 C 252.529 217.930,252.435 218.200,252.490 218.200 C 252.545 218.200,252.729 217.930,252.900 217.600 C 253.071 217.270,253.165 217.000,253.110 217.000 C 253.055 217.000,252.871 217.270,252.700 217.600 M153.457 244.500 C 153.459 245.050,153.498 245.251,153.544 244.947 C 153.589 244.643,153.588 244.193,153.541 243.947 C 153.493 243.701,153.456 243.950,153.457 244.500 M246.457 244.500 C 246.459 245.050,246.498 245.251,246.544 244.947 C 246.589 244.643,246.588 244.193,246.541 243.947 C 246.493 243.701,246.456 243.950,246.457 244.500 M153.460 252.200 C 153.460 252.805,153.497 253.053,153.543 252.750 C 153.589 252.447,153.589 251.953,153.543 251.650 C 153.497 251.347,153.460 251.595,153.460 252.200 M246.460 252.200 C 246.460 252.805,246.497 253.053,246.543 252.750 C 246.589 252.447,246.589 251.953,246.543 251.650 C 246.497 251.347,246.460 251.595,246.460 252.200 M153.246 257.200 C 153.246 257.585,153.288 257.743,153.338 257.550 C 153.388 257.358,153.388 257.043,153.338 256.850 C 153.288 256.657,153.246 256.815,153.246 257.200 M246.646 257.200 C 246.646 257.585,246.688 257.743,246.738 257.550 C 246.788 257.358,246.788 257.043,246.738 256.850 C 246.688 256.657,246.646 256.815,246.646 257.200 M158.265 280.150 C 162.315 280.180,168.885 280.180,172.865 280.150 C 176.844 280.120,173.530 280.095,165.500 280.095 C 157.470 280.095,154.214 280.120,158.265 280.150 M113.400 303.298 L 113.400 313.196 154.150 313.248 L 194.900 313.300 196.024 313.827 C 201.398 316.347,201.398 323.653,196.024 326.173 L 194.900 326.700 154.150 326.752 L 113.400 326.804 113.400 336.702 L 113.400 346.600 200.000 346.600 L 286.600 346.600 286.600 320.000 L 286.600 293.400 200.000 293.400 L 113.400 293.400 113.400 303.298 M229.284 313.754 C 234.768 316.282,234.768 323.717,229.284 326.246 C 228.344 326.680,228.075 326.700,223.300 326.700 L 218.300 326.700 217.175 326.148 C 211.540 323.380,212.200 315.133,218.190 313.464 C 219.907 312.986,228.081 313.200,229.284 313.754 M165.250 360.150 C 182.493 360.178,210.708 360.178,227.950 360.150 C 245.193 360.122,231.085 360.099,196.600 360.099 C 162.115 360.099,148.008 360.122,165.250 360.150 " stroke="none" fill="#7c8c94" fill-rule="evenodd"></path><path id="path2" d="M195.450 13.338 C 195.643 13.388,195.958 13.388,196.150 13.338 C 196.343 13.288,196.185 13.246,195.800 13.246 C 195.415 13.246,195.258 13.288,195.450 13.338 M203.850 13.338 C 204.043 13.388,204.358 13.388,204.550 13.338 C 204.743 13.288,204.585 13.246,204.200 13.246 C 203.815 13.246,203.658 13.288,203.850 13.338 M130.193 43.150 L 129.100 44.300 130.250 43.207 C 130.883 42.606,131.400 42.088,131.400 42.057 C 131.400 41.908,131.209 42.082,130.193 43.150 M269.600 43.100 C 270.197 43.705,270.731 44.200,270.786 44.200 C 270.841 44.200,270.397 43.705,269.800 43.100 C 269.203 42.495,268.669 42.000,268.614 42.000 C 268.559 42.000,269.003 42.495,269.600 43.100 M99.869 112.700 C 99.869 113.580,99.904 113.915,99.947 113.445 C 99.989 112.974,99.988 112.254,99.945 111.845 C 99.902 111.435,99.868 111.820,99.869 112.700 M300.079 114.000 C 300.079 115.595,300.111 116.248,300.149 115.450 C 300.186 114.653,300.186 113.347,300.149 112.550 C 300.111 111.753,300.079 112.405,300.079 114.000 M99.860 115.800 C 99.860 116.405,99.897 116.653,99.943 116.350 C 99.989 116.047,99.989 115.553,99.943 115.250 C 99.897 114.947,99.860 115.195,99.860 115.800 M167.087 127.050 L 166.500 127.700 167.150 127.113 C 167.508 126.790,167.800 126.497,167.800 126.463 C 167.800 126.308,167.635 126.444,167.087 127.050 M232.200 126.463 C 232.200 126.497,232.493 126.790,232.850 127.113 L 233.500 127.700 232.913 127.050 C 232.365 126.444,232.200 126.308,232.200 126.463 M196.558 126.826 C 196.435 126.902,196.034 126.915,195.667 126.856 C 195.248 126.788,195.000 126.830,195.000 126.969 C 195.000 127.108,194.777 127.145,194.400 127.070 C 194.058 127.002,193.800 127.035,193.800 127.147 C 193.800 127.256,193.575 127.302,193.300 127.249 C 193.025 127.196,192.800 127.245,192.800 127.358 C 192.800 127.470,192.620 127.515,192.400 127.458 C 192.180 127.400,192.000 127.445,192.000 127.558 C 192.000 127.670,191.820 127.715,191.600 127.658 C 191.380 127.600,191.200 127.631,191.200 127.727 C 191.199 127.822,190.911 127.911,190.558 127.923 C 190.206 127.936,189.885 128.044,189.846 128.162 C 189.806 128.281,189.645 128.328,189.487 128.267 C 189.329 128.207,189.200 128.247,189.200 128.356 C 189.200 128.466,189.088 128.551,188.950 128.546 C 188.308 128.522,187.987 128.617,188.099 128.798 C 188.169 128.911,188.088 128.945,187.910 128.876 C 187.740 128.811,187.600 128.854,187.600 128.972 C 187.600 129.091,187.450 129.130,187.267 129.060 C 187.045 128.974,186.982 129.009,187.078 129.164 C 187.168 129.311,187.117 129.355,186.936 129.286 C 186.780 129.226,186.516 129.313,186.350 129.479 C 186.184 129.645,186.004 129.737,185.950 129.683 C 185.790 129.523,184.803 130.043,184.917 130.227 C 184.974 130.320,184.866 130.336,184.678 130.264 C 184.426 130.167,184.378 130.203,184.498 130.397 C 184.604 130.568,184.584 130.614,184.443 130.527 C 184.164 130.354,182.951 131.079,183.151 131.299 C 183.233 131.390,183.188 131.399,183.050 131.320 C 182.749 131.147,181.941 131.668,182.151 131.900 C 182.233 131.990,182.204 132.010,182.088 131.943 C 181.840 131.803,180.748 132.465,180.898 132.665 C 180.954 132.739,180.943 132.758,180.874 132.707 C 180.638 132.534,179.987 133.016,180.126 133.260 C 180.202 133.392,180.193 133.436,180.106 133.357 C 179.863 133.138,179.169 133.585,179.326 133.860 C 179.402 133.992,179.392 134.035,179.305 133.956 C 179.129 133.797,177.979 134.538,178.054 134.761 C 178.079 134.837,178.035 134.900,177.955 134.900 C 177.698 134.900,175.021 137.660,175.061 137.884 C 175.083 138.003,174.992 138.079,174.861 138.054 C 174.557 137.995,173.763 139.092,173.956 139.305 C 174.035 139.392,173.992 139.402,173.860 139.326 C 173.585 139.169,173.138 139.863,173.357 140.106 C 173.436 140.193,173.392 140.202,173.260 140.126 C 173.016 139.987,172.534 140.638,172.707 140.874 C 172.758 140.943,172.739 140.954,172.665 140.898 C 172.465 140.748,171.803 141.840,171.943 142.088 C 172.010 142.204,171.990 142.233,171.900 142.151 C 171.668 141.941,171.147 142.749,171.320 143.050 C 171.399 143.188,171.390 143.233,171.299 143.151 C 171.079 142.951,170.354 144.164,170.527 144.443 C 170.614 144.584,170.568 144.604,170.397 144.498 C 170.203 144.378,170.167 144.426,170.264 144.678 C 170.336 144.866,170.320 144.974,170.227 144.917 C 170.043 144.803,169.523 145.790,169.683 145.950 C 169.737 146.004,169.645 146.184,169.479 146.350 C 169.313 146.516,169.226 146.780,169.286 146.936 C 169.355 147.117,169.311 147.168,169.164 147.078 C 169.009 146.982,168.974 147.045,169.060 147.267 C 169.130 147.450,169.091 147.600,168.972 147.600 C 168.854 147.600,168.811 147.740,168.876 147.910 C 168.945 148.088,168.911 148.169,168.798 148.099 C 168.617 147.987,168.522 148.308,168.546 148.950 C 168.551 149.088,168.466 149.200,168.356 149.200 C 168.247 149.200,168.209 149.335,168.272 149.500 C 168.336 149.665,168.291 149.800,168.172 149.800 C 168.054 149.800,168.009 149.935,168.072 150.100 C 168.136 150.265,168.090 150.400,167.970 150.400 C 167.851 150.400,167.800 150.580,167.858 150.800 C 167.915 151.020,167.870 151.200,167.758 151.200 C 167.645 151.200,167.600 151.380,167.658 151.600 C 167.715 151.820,167.670 152.000,167.558 152.000 C 167.445 152.000,167.400 152.180,167.458 152.400 C 167.515 152.620,167.471 152.800,167.360 152.800 C 167.243 152.800,167.210 153.013,167.282 153.300 C 167.361 153.615,167.323 153.800,167.179 153.800 C 167.031 153.800,166.993 154.013,167.070 154.400 C 167.139 154.746,167.106 155.000,166.990 155.000 C 166.880 155.000,166.793 155.338,166.797 155.750 C 166.806 156.724,166.806 163.276,166.797 164.250 C 166.793 164.663,166.880 165.000,166.990 165.000 C 167.106 165.000,167.139 165.254,167.070 165.600 C 167.002 165.942,167.035 166.200,167.147 166.200 C 167.256 166.200,167.302 166.425,167.249 166.700 C 167.196 166.975,167.245 167.200,167.358 167.200 C 167.470 167.200,167.515 167.380,167.458 167.600 C 167.400 167.820,167.445 168.000,167.558 168.000 C 167.670 168.000,167.715 168.180,167.658 168.400 C 167.600 168.620,167.631 168.800,167.727 168.800 C 167.822 168.801,167.911 169.089,167.923 169.442 C 167.936 169.794,168.044 170.115,168.162 170.154 C 168.281 170.194,168.328 170.355,168.267 170.513 C 168.207 170.671,168.247 170.800,168.356 170.800 C 168.466 170.800,168.551 170.913,168.546 171.050 C 168.522 171.692,168.617 172.013,168.798 171.901 C 168.911 171.831,168.945 171.912,168.876 172.090 C 168.811 172.260,168.854 172.400,168.972 172.400 C 169.091 172.400,169.130 172.550,169.060 172.733 C 168.974 172.955,169.009 173.018,169.164 172.922 C 169.311 172.832,169.355 172.883,169.286 173.064 C 169.226 173.220,169.313 173.484,169.479 173.650 C 169.645 173.816,169.737 173.996,169.683 174.050 C 169.523 174.210,170.043 175.197,170.227 175.083 C 170.320 175.026,170.336 175.134,170.264 175.322 C 170.167 175.574,170.203 175.622,170.397 175.502 C 170.568 175.396,170.614 175.416,170.527 175.557 C 170.354 175.836,171.079 177.049,171.299 176.849 C 171.390 176.767,171.399 176.812,171.320 176.950 C 171.147 177.251,171.668 178.059,171.900 177.849 C 171.990 177.767,172.010 177.796,171.943 177.912 C 171.803 178.160,172.465 179.252,172.665 179.102 C 172.739 179.046,172.758 179.057,172.707 179.126 C 172.534 179.362,173.016 180.013,173.260 179.874 C 173.392 179.798,173.436 179.807,173.357 179.894 C 173.138 180.137,173.585 180.831,173.860 180.674 C 173.992 180.598,174.035 180.608,173.956 180.695 C 173.797 180.871,174.538 182.021,174.761 181.946 C 174.837 181.921,174.925 181.990,174.955 182.100 C 175.052 182.452,177.659 184.979,177.884 184.939 C 178.003 184.917,178.079 185.008,178.054 185.139 C 177.995 185.443,179.092 186.237,179.305 186.044 C 179.392 185.965,179.402 186.008,179.326 186.140 C 179.169 186.415,179.863 186.862,180.106 186.643 C 180.193 186.564,180.202 186.608,180.126 186.740 C 179.987 186.984,180.638 187.466,180.874 187.293 C 180.943 187.242,180.954 187.261,180.898 187.335 C 180.748 187.535,181.840 188.197,182.088 188.057 C 182.204 187.990,182.233 188.010,182.151 188.100 C 181.941 188.332,182.749 188.853,183.050 188.680 C 183.188 188.601,183.233 188.610,183.151 188.701 C 182.951 188.921,184.164 189.646,184.443 189.473 C 184.584 189.386,184.604 189.432,184.498 189.603 C 184.378 189.797,184.426 189.833,184.678 189.736 C 184.866 189.664,184.974 189.680,184.917 189.773 C 184.803 189.957,185.790 190.477,185.950 190.317 C 186.004 190.263,186.184 190.355,186.350 190.521 C 186.516 190.687,186.780 190.774,186.936 190.714 C 187.117 190.645,187.168 190.689,187.078 190.836 C 186.982 190.991,187.045 191.026,187.267 190.940 C 187.450 190.870,187.600 190.909,187.600 191.028 C 187.600 191.146,187.740 191.189,187.910 191.124 C 188.088 191.055,188.169 191.089,188.099 191.202 C 187.987 191.383,188.308 191.478,188.950 191.454 C 189.088 191.449,189.200 191.534,189.200 191.644 C 189.200 191.753,189.329 191.793,189.487 191.733 C 189.645 191.672,189.806 191.719,189.846 191.838 C 189.885 191.956,190.206 192.064,190.558 192.077 C 190.911 192.089,191.199 192.178,191.200 192.273 C 191.200 192.369,191.380 192.400,191.600 192.342 C 191.820 192.285,192.000 192.330,192.000 192.442 C 192.000 192.555,192.180 192.600,192.400 192.542 C 192.620 192.485,192.800 192.530,192.800 192.642 C 192.800 192.755,193.025 192.804,193.300 192.751 C 193.575 192.698,193.800 192.744,193.800 192.853 C 193.800 192.965,194.058 192.998,194.400 192.930 C 194.746 192.861,195.000 192.894,195.000 193.010 C 195.000 193.120,195.338 193.205,195.750 193.200 C 196.163 193.194,198.013 193.221,199.861 193.258 C 201.710 193.295,203.269 193.250,203.327 193.157 C 203.384 193.064,203.729 193.044,204.093 193.112 C 204.478 193.184,204.809 193.148,204.885 193.025 C 204.958 192.906,205.276 192.865,205.608 192.932 C 205.944 192.999,206.200 192.965,206.200 192.853 C 206.200 192.744,206.425 192.698,206.700 192.751 C 206.975 192.804,207.200 192.755,207.200 192.642 C 207.200 192.530,207.380 192.485,207.600 192.542 C 207.820 192.600,208.000 192.555,208.000 192.442 C 208.000 192.330,208.180 192.285,208.400 192.342 C 208.620 192.400,208.800 192.355,208.800 192.242 C 208.800 192.130,208.994 192.088,209.231 192.150 C 209.508 192.222,209.615 192.187,209.531 192.050 C 209.448 191.916,209.548 191.876,209.800 191.942 C 210.032 192.003,210.200 191.948,210.200 191.812 C 210.200 191.682,210.275 191.623,210.367 191.680 C 210.598 191.822,212.006 191.372,211.895 191.191 C 211.845 191.111,211.916 191.049,212.052 191.054 C 212.736 191.079,213.013 190.983,212.881 190.769 C 212.796 190.632,212.826 190.592,212.954 190.672 C 213.208 190.828,214.200 190.418,214.200 190.156 C 214.200 190.057,214.282 190.027,214.382 190.089 C 214.661 190.261,215.215 189.986,215.068 189.748 C 214.995 189.630,215.034 189.597,215.157 189.673 C 215.436 189.846,216.649 189.121,216.449 188.901 C 216.367 188.810,216.412 188.801,216.550 188.880 C 216.851 189.053,217.659 188.532,217.449 188.300 C 217.367 188.210,217.409 188.199,217.543 188.275 C 217.855 188.455,219.435 187.418,219.266 187.145 C 219.196 187.031,219.229 186.994,219.339 187.062 C 219.587 187.216,220.921 186.249,220.845 185.971 C 220.815 185.861,220.868 185.818,220.963 185.877 C 221.057 185.935,221.442 185.707,221.817 185.370 C 222.193 185.032,222.320 184.878,222.100 185.028 C 221.733 185.277,221.723 185.271,221.973 184.952 C 222.123 184.761,222.310 184.644,222.388 184.693 C 222.571 184.805,224.848 182.515,224.701 182.367 C 224.640 182.307,224.750 182.132,224.945 181.979 C 225.272 181.722,225.279 181.731,225.028 182.100 C 224.878 182.320,225.032 182.193,225.370 181.817 C 225.707 181.442,225.935 181.057,225.877 180.963 C 225.818 180.868,225.861 180.815,225.971 180.845 C 226.249 180.921,227.216 179.587,227.062 179.339 C 226.994 179.229,227.031 179.196,227.145 179.266 C 227.418 179.435,228.455 177.855,228.275 177.543 C 228.199 177.409,228.210 177.367,228.300 177.449 C 228.532 177.659,229.053 176.851,228.880 176.550 C 228.801 176.412,228.810 176.367,228.901 176.449 C 229.121 176.649,229.846 175.436,229.673 175.157 C 229.597 175.034,229.630 174.995,229.748 175.068 C 229.986 175.215,230.261 174.661,230.089 174.382 C 230.027 174.282,230.057 174.200,230.156 174.200 C 230.418 174.200,230.828 173.208,230.672 172.954 C 230.592 172.826,230.632 172.796,230.769 172.881 C 230.983 173.013,231.079 172.736,231.054 172.052 C 231.049 171.916,231.111 171.845,231.191 171.895 C 231.372 172.006,231.822 170.598,231.680 170.367 C 231.623 170.275,231.682 170.200,231.812 170.200 C 231.948 170.200,232.003 170.032,231.942 169.800 C 231.876 169.548,231.916 169.448,232.050 169.531 C 232.187 169.615,232.222 169.508,232.150 169.231 C 232.088 168.994,232.130 168.800,232.242 168.800 C 232.355 168.800,232.400 168.620,232.342 168.400 C 232.285 168.180,232.330 168.000,232.442 168.000 C 232.555 168.000,232.600 167.820,232.542 167.600 C 232.485 167.380,232.530 167.200,232.642 167.200 C 232.755 167.200,232.804 166.975,232.751 166.700 C 232.698 166.425,232.744 166.200,232.853 166.200 C 232.965 166.200,232.999 165.944,232.932 165.608 C 232.865 165.276,232.906 164.958,233.025 164.885 C 233.148 164.809,233.184 164.478,233.112 164.093 C 233.044 163.729,233.064 163.384,233.157 163.327 C 233.250 163.269,233.295 161.710,233.258 159.861 C 233.221 158.013,233.194 156.163,233.200 155.750 C 233.205 155.338,233.120 155.000,233.010 155.000 C 232.894 155.000,232.861 154.746,232.930 154.400 C 232.998 154.058,232.965 153.800,232.853 153.800 C 232.744 153.800,232.698 153.575,232.751 153.300 C 232.804 153.025,232.755 152.800,232.642 152.800 C 232.530 152.800,232.485 152.620,232.542 152.400 C 232.600 152.180,232.555 152.000,232.442 152.000 C 232.330 152.000,232.285 151.820,232.342 151.600 C 232.400 151.380,232.369 151.200,232.273 151.200 C 232.178 151.199,232.089 150.911,232.077 150.558 C 232.064 150.206,231.956 149.885,231.838 149.846 C 231.719 149.806,231.672 149.645,231.733 149.487 C 231.793 149.329,231.753 149.200,231.644 149.200 C 231.534 149.200,231.449 149.088,231.454 148.950 C 231.478 148.308,231.383 147.987,231.202 148.099 C 231.089 148.169,231.055 148.088,231.124 147.910 C 231.189 147.740,231.146 147.600,231.028 147.600 C 230.909 147.600,230.870 147.450,230.940 147.267 C 231.026 147.045,230.991 146.982,230.836 147.078 C 230.689 147.168,230.645 147.117,230.714 146.936 C 230.774 146.780,230.687 146.516,230.521 146.350 C 230.355 146.184,230.263 146.004,230.317 145.950 C 230.477 145.790,229.957 144.803,229.773 144.917 C 229.680 144.974,229.664 144.866,229.736 144.678 C 229.833 144.426,229.797 144.378,229.603 144.498 C 229.432 144.604,229.386 144.584,229.473 144.443 C 229.646 144.164,228.921 142.951,228.701 143.151 C 228.610 143.233,228.601 143.188,228.680 143.050 C 228.853 142.749,228.332 141.941,228.100 142.151 C 228.010 142.233,227.990 142.204,228.057 142.088 C 228.197 141.840,227.535 140.748,227.335 140.898 C 227.261 140.954,227.242 140.943,227.293 140.874 C 227.466 140.638,226.984 139.987,226.740 140.126 C 226.608 140.202,226.564 140.193,226.643 140.106 C 226.862 139.863,226.415 139.169,226.140 139.326 C 226.008 139.402,225.965 139.392,226.044 139.305 C 226.203 139.129,225.462 137.979,225.239 138.054 C 225.163 138.079,225.100 138.035,225.100 137.955 C 225.100 137.698,222.340 135.021,222.116 135.061 C 221.997 135.083,221.921 134.992,221.946 134.861 C 222.005 134.557,220.908 133.763,220.695 133.956 C 220.608 134.035,220.598 133.992,220.674 133.860 C 220.831 133.585,220.137 133.138,219.894 133.357 C 219.807 133.436,219.798 133.392,219.874 133.260 C 220.034 132.981,219.340 132.543,219.076 132.757 C 218.979 132.836,218.968 132.817,219.052 132.715 C 219.241 132.483,218.202 131.779,217.912 131.943 C 217.796 132.010,217.767 131.990,217.849 131.900 C 218.059 131.668,217.251 131.147,216.950 131.320 C 216.812 131.399,216.767 131.390,216.849 131.299 C 217.049 131.079,215.836 130.354,215.557 130.527 C 215.416 130.614,215.396 130.568,215.502 130.397 C 215.622 130.203,215.574 130.167,215.322 130.264 C 215.134 130.336,215.026 130.320,215.083 130.227 C 215.197 130.043,214.210 129.523,214.050 129.683 C 213.996 129.737,213.816 129.645,213.650 129.479 C 213.484 129.313,213.220 129.226,213.064 129.286 C 212.883 129.355,212.832 129.311,212.922 129.164 C 213.018 129.009,212.955 128.974,212.733 129.060 C 212.550 129.130,212.400 129.091,212.400 128.972 C 212.400 128.854,212.260 128.811,212.090 128.876 C 211.912 128.945,211.831 128.911,211.901 128.798 C 212.013 128.617,211.692 128.522,211.050 128.546 C 210.913 128.551,210.800 128.466,210.800 128.356 C 210.800 128.247,210.671 128.207,210.513 128.267 C 210.355 128.328,210.194 128.281,210.154 128.162 C 210.115 128.044,209.794 127.936,209.442 127.923 C 209.089 127.911,208.801 127.822,208.800 127.727 C 208.800 127.631,208.620 127.600,208.400 127.658 C 208.180 127.715,208.000 127.670,208.000 127.558 C 208.000 127.445,207.820 127.400,207.600 127.458 C 207.380 127.515,207.200 127.470,207.200 127.358 C 207.200 127.245,206.975 127.196,206.700 127.249 C 206.425 127.302,206.200 127.256,206.200 127.147 C 206.200 127.035,205.942 127.002,205.600 127.070 C 205.254 127.139,205.000 127.106,205.000 126.990 C 205.000 126.880,204.663 126.794,204.250 126.800 C 203.838 126.805,201.988 126.782,200.141 126.748 C 198.293 126.715,196.681 126.750,196.558 126.826 M246.446 158.200 C 246.446 158.585,246.488 158.743,246.538 158.550 C 246.588 158.358,246.588 158.043,246.538 157.850 C 246.488 157.658,246.446 157.815,246.446 158.200 M153.446 161.800 C 153.446 162.185,153.488 162.343,153.538 162.150 C 153.588 161.958,153.588 161.643,153.538 161.450 C 153.488 161.258,153.446 161.415,153.446 161.800 M246.446 161.800 C 246.446 162.185,246.488 162.343,246.538 162.150 C 246.588 161.958,246.588 161.643,246.538 161.450 C 246.488 161.258,246.446 161.415,246.446 161.800 M180.098 241.100 C 180.098 262.660,180.121 271.450,180.150 260.634 C 180.179 249.818,180.179 232.178,180.150 221.434 C 180.121 210.690,180.098 219.540,180.098 241.100 M193.200 243.082 L 193.200 280.000 200.000 280.000 L 206.800 280.000 206.800 243.082 L 206.800 206.164 205.050 206.332 C 204.088 206.424,201.815 206.500,200.000 206.500 C 198.185 206.500,195.913 206.424,194.950 206.332 L 193.200 206.164 193.200 243.082 M153.480 248.300 C 153.480 249.950,153.511 250.598,153.549 249.741 C 153.586 248.883,153.586 247.533,153.548 246.741 C 153.510 245.948,153.480 246.650,153.480 248.300 M246.480 248.300 C 246.480 249.950,246.511 250.598,246.549 249.741 C 246.586 248.883,246.586 247.533,246.548 246.741 C 246.510 245.948,246.480 246.650,246.480 248.300 M133.666 313.350 C 144.867 313.379,163.137 313.379,174.266 313.350 C 185.395 313.321,176.230 313.298,153.900 313.298 C 131.570 313.298,122.465 313.321,133.666 313.350 M221.039 313.349 C 222.215 313.384,224.195 313.385,225.439 313.349 C 226.683 313.314,225.720 313.285,223.300 313.285 C 220.880 313.285,219.863 313.314,221.039 313.349 M213.260 320.000 C 213.260 320.605,213.297 320.853,213.343 320.550 C 213.389 320.248,213.389 319.753,213.343 319.450 C 213.297 319.148,213.260 319.395,213.260 320.000 M133.666 326.750 C 144.867 326.779,163.137 326.779,174.266 326.750 C 185.395 326.721,176.230 326.698,153.900 326.698 C 131.570 326.698,122.465 326.721,133.666 326.750 M221.039 326.749 C 222.215 326.784,224.195 326.785,225.439 326.749 C 226.683 326.714,225.720 326.685,223.300 326.685 C 220.880 326.685,219.863 326.714,221.039 326.749 " stroke="none" fill="#6c6c6c" fill-rule="evenodd"></path><path id="path3" d="M197.000 13.334 C 149.792 15.038,107.685 53.545,100.920 101.200 C 97.309 126.633,103.098 143.520,131.495 190.396 C 143.855 210.799,149.170 220.379,150.650 224.927 C 154.230 235.929,154.522 253.674,151.490 276.134 C 151.221 278.133,151.000 279.821,151.000 279.884 C 151.000 279.948,157.525 280.000,165.500 280.000 L 180.000 280.000 179.998 241.050 L 179.995 202.100 178.255 201.200 C 154.108 188.715,146.010 157.330,161.016 134.385 C 179.315 106.404,220.685 106.404,238.984 134.385 C 253.990 157.330,245.892 188.715,221.745 201.200 L 220.005 202.100 220.002 241.050 L 220.000 280.000 234.526 280.000 L 249.051 280.000 248.915 279.150 C 248.589 277.118,247.594 268.823,247.314 265.800 C 245.575 247.040,246.501 231.970,249.924 223.320 C 251.695 218.846,257.446 208.656,268.509 190.390 C 296.894 143.526,302.689 126.620,299.080 101.200 C 292.763 56.703,255.330 19.564,211.200 14.011 C 208.072 13.618,201.027 13.163,199.300 13.242 C 198.860 13.263,197.825 13.304,197.000 13.334 " stroke="none" fill="#fbfbfb" fill-rule="evenodd"></path><path id="path4" d="M130.193 43.350 L 129.100 44.500 130.250 43.407 C 130.883 42.806,131.400 42.288,131.400 42.257 C 131.400 42.108,131.209 42.282,130.193 43.350 M269.600 43.300 C 270.197 43.905,270.731 44.400,270.786 44.400 C 270.841 44.400,270.397 43.905,269.800 43.300 C 269.203 42.695,268.669 42.200,268.614 42.200 C 268.559 42.200,269.003 42.695,269.600 43.300 M166.887 127.050 L 166.300 127.700 166.950 127.113 C 167.308 126.790,167.600 126.497,167.600 126.463 C 167.600 126.308,167.435 126.444,166.887 127.050 M232.400 126.463 C 232.400 126.497,232.693 126.790,233.050 127.113 L 233.700 127.700 233.113 127.050 C 232.565 126.444,232.400 126.308,232.400 126.463 M134.294 360.938 C 136.740 373.979,149.488 385.054,163.604 386.403 C 167.678 386.792,230.291 386.554,232.268 386.141 C 245.935 383.291,256.757 373.077,259.067 360.850 L 259.190 360.200 196.673 360.200 L 134.155 360.200 134.294 360.938 " stroke="none" fill="#ccdcec" fill-rule="evenodd"></path></g></svg>