<svg id="svg" xmlns="http://www.w3.org/2000/svg" xmlns:xlink="http://www.w3.org/1999/xlink" width="400" height="400" viewBox="0, 0, 400,400"><g id="svgg"><path id="path0" d="M135.401 105.198 C 135.265 105.419,134.629 105.600,133.989 105.600 C 133.348 105.600,132.183 105.960,131.400 106.400 C 130.617 106.840,129.649 107.200,129.250 107.200 C 128.851 107.200,128.198 107.560,127.800 108.000 C 127.402 108.440,126.856 108.800,126.587 108.800 C 126.318 108.800,125.858 109.089,125.565 109.442 C 125.273 109.795,124.617 110.241,124.109 110.434 C 123.601 110.628,123.028 111.201,122.834 111.709 C 122.641 112.217,122.195 112.873,121.842 113.165 C 121.489 113.458,121.200 113.918,121.200 114.187 C 121.200 114.456,120.840 115.002,120.400 115.400 C 119.960 115.798,119.600 116.510,119.600 116.982 C 119.600 117.454,119.437 118.011,119.239 118.220 C 117.977 119.547,117.600 123.740,117.600 136.432 L 117.600 149.200 166.176 149.200 C 198.129 149.200,214.837 149.337,215.000 149.600 C 215.136 149.820,215.789 150.000,216.452 150.000 C 217.611 150.000,220.319 151.547,222.333 153.360 C 225.717 156.405,226.578 166.530,223.723 169.686 C 223.364 170.082,222.871 170.806,222.628 171.295 C 222.384 171.784,221.784 172.384,221.295 172.628 C 220.806 172.871,220.084 173.362,219.691 173.718 C 217.621 175.591,217.365 175.600,165.916 175.600 L 117.600 175.600 117.600 242.800 C 117.600 312.154,117.594 311.875,119.000 309.600 C 119.136 309.380,119.676 309.200,120.200 309.200 C 120.724 309.200,121.264 309.020,121.400 308.800 C 121.536 308.580,122.051 308.400,122.544 308.400 C 123.037 308.400,123.611 308.251,123.820 308.069 C 124.029 307.887,129.600 305.982,136.200 303.836 C 142.800 301.690,148.513 299.769,148.895 299.567 C 149.277 299.365,149.941 299.200,150.371 299.200 C 150.801 299.200,151.264 299.020,151.400 298.800 C 151.536 298.580,152.076 298.400,152.600 298.400 C 153.124 298.400,153.664 298.220,153.800 298.000 C 153.936 297.780,154.476 297.600,155.000 297.600 C 155.524 297.600,156.064 297.420,156.200 297.200 C 156.336 296.980,156.876 296.800,157.400 296.800 C 157.924 296.800,158.464 296.620,158.600 296.400 C 158.736 296.180,159.276 296.000,159.800 296.000 C 160.324 296.000,160.864 295.820,161.000 295.600 C 161.136 295.380,161.676 295.200,162.200 295.200 C 162.724 295.200,163.264 295.020,163.400 294.800 C 163.536 294.580,164.076 294.400,164.600 294.400 C 165.124 294.400,165.664 294.220,165.800 294.000 C 165.936 293.780,166.476 293.600,167.000 293.600 C 167.524 293.600,168.064 293.420,168.200 293.200 C 168.336 292.980,168.876 292.800,169.400 292.800 C 169.924 292.800,170.464 292.620,170.600 292.400 C 170.736 292.180,171.199 292.000,171.629 292.000 C 172.059 292.000,172.723 291.823,173.105 291.606 C 175.391 290.310,198.195 283.200,200.065 283.200 C 201.786 283.200,217.290 287.897,222.600 290.026 C 223.040 290.203,224.120 290.576,225.000 290.855 C 225.880 291.135,226.771 291.507,226.980 291.682 C 227.189 291.857,227.763 292.000,228.256 292.000 C 228.749 292.000,229.264 292.180,229.400 292.400 C 229.536 292.620,230.076 292.800,230.600 292.800 C 231.124 292.800,231.664 292.980,231.800 293.200 C 231.936 293.420,232.476 293.600,233.000 293.600 C 233.524 293.600,234.064 293.780,234.200 294.000 C 234.336 294.220,234.876 294.400,235.400 294.400 C 235.924 294.400,236.464 294.580,236.600 294.800 C 236.736 295.020,237.276 295.200,237.800 295.200 C 238.324 295.200,238.864 295.380,239.000 295.600 C 239.136 295.820,239.676 296.000,240.200 296.000 C 240.724 296.000,241.264 296.180,241.400 296.400 C 241.536 296.620,241.999 296.800,242.429 296.800 C 242.859 296.800,243.523 296.962,243.905 297.161 C 244.287 297.360,245.410 297.751,246.400 298.031 C 247.390 298.310,248.371 298.688,248.580 298.870 C 248.789 299.051,249.286 299.200,249.685 299.200 C 250.084 299.200,250.723 299.358,251.105 299.552 C 251.487 299.745,255.040 300.939,259.000 302.203 C 262.960 303.468,266.560 304.651,267.000 304.832 C 268.992 305.653,277.584 308.400,278.159 308.400 C 278.512 308.400,278.800 308.580,278.800 308.800 C 278.800 309.020,279.239 309.200,279.776 309.200 C 280.313 309.200,280.864 309.380,281.000 309.600 C 281.136 309.820,281.507 310.000,281.824 310.000 C 282.569 310.000,282.703 124.128,281.960 121.400 C 281.398 119.337,278.577 113.356,277.996 112.998 C 277.751 112.846,277.385 112.287,277.182 111.754 C 276.980 111.221,276.399 110.628,275.891 110.434 C 275.383 110.241,274.727 109.795,274.435 109.442 C 274.142 109.089,273.682 108.800,273.413 108.800 C 273.144 108.800,272.598 108.440,272.200 108.000 C 271.802 107.560,271.231 107.200,270.933 107.200 C 270.634 107.200,270.077 107.041,269.695 106.847 C 268.458 106.218,267.027 105.667,265.800 105.349 C 263.935 104.864,135.699 104.716,135.401 105.198 " stroke="none" fill="#fcfcfc" fill-rule="evenodd"></path><path id="path1" d="M130.200 95.200 C 130.064 95.420,129.333 95.600,128.576 95.600 C 127.819 95.600,127.200 95.780,127.200 96.000 C 127.200 96.220,126.840 96.400,126.400 96.400 C 125.960 96.400,125.600 96.580,125.600 96.800 C 125.600 97.020,125.100 97.200,124.488 97.200 C 123.835 97.200,123.139 97.530,122.800 98.000 C 122.483 98.440,121.943 98.800,121.600 98.800 C 121.257 98.800,120.717 99.160,120.400 99.600 C 120.083 100.040,119.590 100.400,119.305 100.400 C 119.020 100.400,117.440 101.747,115.794 103.394 C 114.147 105.040,112.800 106.620,112.800 106.905 C 112.800 107.190,112.440 107.683,112.000 108.000 C 111.560 108.317,111.200 108.878,111.200 109.246 C 111.200 109.613,110.930 110.018,110.600 110.145 C 110.249 110.279,110.000 110.879,110.000 111.587 C 110.000 112.254,109.820 112.800,109.600 112.800 C 109.380 112.800,109.200 113.160,109.200 113.600 C 109.200 114.040,109.020 114.400,108.800 114.400 C 108.580 114.400,108.400 115.120,108.400 116.000 C 108.400 116.880,108.220 117.600,108.000 117.600 C 107.734 117.600,107.600 151.538,107.600 218.613 L 107.600 319.627 108.987 321.013 C 110.394 322.420,116.800 323.229,116.800 322.000 C 116.800 321.780,117.340 321.600,118.000 321.600 C 118.660 321.600,119.200 321.420,119.200 321.200 C 119.200 320.980,119.740 320.800,120.400 320.800 C 121.060 320.800,121.600 320.620,121.600 320.400 C 121.600 320.180,122.039 320.000,122.576 320.000 C 123.113 320.000,123.664 319.820,123.800 319.600 C 123.936 319.380,124.487 319.200,125.024 319.200 C 125.561 319.200,126.000 319.020,126.000 318.800 C 126.000 318.580,126.540 318.400,127.200 318.400 C 127.860 318.400,128.400 318.220,128.400 318.000 C 128.400 317.780,128.940 317.600,129.600 317.600 C 130.260 317.600,130.800 317.420,130.800 317.200 C 130.800 316.980,131.340 316.800,132.000 316.800 C 132.660 316.800,133.200 316.620,133.200 316.400 C 133.200 316.180,133.740 316.000,134.400 316.000 C 135.060 316.000,135.600 315.820,135.600 315.600 C 135.600 315.380,136.140 315.200,136.800 315.200 C 137.460 315.200,138.000 315.020,138.000 314.800 C 138.000 314.580,138.540 314.400,139.200 314.400 C 139.860 314.400,140.400 314.220,140.400 314.000 C 140.400 313.780,140.850 313.600,141.400 313.600 C 141.950 313.600,142.400 313.420,142.400 313.200 C 142.400 312.980,142.940 312.800,143.600 312.800 C 144.260 312.800,144.800 312.620,144.800 312.400 C 144.800 312.180,145.340 312.000,146.000 312.000 C 146.660 312.000,147.200 311.820,147.200 311.600 C 147.200 311.380,147.740 311.200,148.400 311.200 C 149.060 311.200,149.600 311.020,149.600 310.800 C 149.600 310.580,150.140 310.400,150.800 310.400 C 151.460 310.400,152.000 310.220,152.000 310.000 C 152.000 309.780,152.540 309.600,153.200 309.600 C 153.860 309.600,154.400 309.441,154.400 309.246 C 154.400 309.051,155.390 308.768,156.600 308.617 C 157.810 308.466,158.800 308.175,158.800 307.971 C 158.800 307.767,159.340 307.600,160.000 307.600 C 160.660 307.600,161.200 307.420,161.200 307.200 C 161.200 306.980,161.740 306.800,162.400 306.800 C 163.060 306.800,163.600 306.620,163.600 306.400 C 163.600 306.180,164.140 306.000,164.800 306.000 C 165.460 306.000,166.000 305.820,166.000 305.600 C 166.000 305.380,166.540 305.200,167.200 305.200 C 167.860 305.200,168.400 305.020,168.400 304.800 C 168.400 304.580,168.940 304.400,169.600 304.400 C 170.260 304.400,170.800 304.220,170.800 304.000 C 170.800 303.780,171.239 303.600,171.776 303.600 C 172.313 303.600,172.864 303.420,173.000 303.200 C 173.136 302.980,173.687 302.800,174.224 302.800 C 174.761 302.800,175.200 302.620,175.200 302.400 C 175.200 302.180,175.740 302.000,176.400 302.000 C 177.060 302.000,177.600 301.820,177.600 301.600 C 177.600 301.380,178.140 301.200,178.800 301.200 C 179.460 301.200,180.000 301.020,180.000 300.800 C 180.000 300.580,180.540 300.400,181.200 300.400 C 181.860 300.400,182.400 300.220,182.400 300.000 C 182.400 299.780,182.940 299.600,183.600 299.600 C 184.260 299.600,184.800 299.420,184.800 299.200 C 184.800 298.980,185.340 298.800,186.000 298.800 C 186.660 298.800,187.200 298.620,187.200 298.400 C 187.200 298.180,187.740 298.000,188.400 298.000 C 189.060 298.000,189.600 297.820,189.600 297.600 C 189.600 297.380,190.050 297.200,190.600 297.200 C 191.150 297.200,191.600 297.020,191.600 296.800 C 191.600 296.580,192.140 296.400,192.800 296.400 C 193.460 296.400,194.000 296.220,194.000 296.000 C 194.000 295.780,194.540 295.600,195.200 295.600 C 195.860 295.600,196.400 295.420,196.400 295.200 C 196.400 294.980,196.940 294.800,197.600 294.800 C 198.260 294.800,198.800 294.620,198.800 294.400 C 198.800 294.180,199.340 294.000,200.000 294.000 C 200.660 294.000,201.200 294.180,201.200 294.400 C 201.200 294.620,201.740 294.800,202.400 294.800 C 203.060 294.800,203.600 294.980,203.600 295.200 C 203.600 295.420,204.140 295.600,204.800 295.600 C 205.460 295.600,206.000 295.780,206.000 296.000 C 206.000 296.220,206.540 296.400,207.200 296.400 C 207.860 296.400,208.400 296.580,208.400 296.800 C 208.400 297.020,208.850 297.200,209.400 297.200 C 209.950 297.200,210.400 297.380,210.400 297.600 C 210.400 297.820,210.940 298.000,211.600 298.000 C 212.260 298.000,212.800 298.180,212.800 298.400 C 212.800 298.620,213.340 298.800,214.000 298.800 C 214.660 298.800,215.200 298.980,215.200 299.200 C 215.200 299.420,215.740 299.600,216.400 299.600 C 217.060 299.600,217.600 299.780,217.600 300.000 C 217.600 300.220,218.140 300.400,218.800 300.400 C 219.460 300.400,220.000 300.580,220.000 300.800 C 220.000 301.020,220.540 301.200,221.200 301.200 C 221.860 301.200,222.400 301.380,222.400 301.600 C 222.400 301.820,222.940 302.000,223.600 302.000 C 224.260 302.000,224.800 302.180,224.800 302.400 C 224.800 302.620,225.340 302.800,226.000 302.800 C 226.660 302.800,227.200 302.980,227.200 303.200 C 227.200 303.420,227.650 303.600,228.200 303.600 C 228.750 303.600,229.200 303.780,229.200 304.000 C 229.200 304.220,229.740 304.400,230.400 304.400 C 231.060 304.400,231.600 304.580,231.600 304.800 C 231.600 305.020,232.140 305.200,232.800 305.200 C 233.460 305.200,234.000 305.380,234.000 305.600 C 234.000 305.820,234.540 306.000,235.200 306.000 C 235.860 306.000,236.400 306.180,236.400 306.400 C 236.400 306.620,236.940 306.800,237.600 306.800 C 238.260 306.800,238.800 306.980,238.800 307.200 C 238.800 307.420,239.340 307.600,240.000 307.600 C 240.660 307.600,241.200 307.759,241.200 307.954 C 241.200 308.149,242.190 308.432,243.400 308.583 C 244.610 308.734,245.600 309.025,245.600 309.229 C 245.600 309.433,246.140 309.600,246.800 309.600 C 247.460 309.600,248.000 309.780,248.000 310.000 C 248.000 310.220,248.540 310.400,249.200 310.400 C 249.860 310.400,250.400 310.580,250.400 310.800 C 250.400 311.020,250.940 311.200,251.600 311.200 C 252.260 311.200,252.800 311.380,252.800 311.600 C 252.800 311.820,253.340 312.000,254.000 312.000 C 254.660 312.000,255.200 312.180,255.200 312.400 C 255.200 312.620,255.740 312.800,256.400 312.800 C 257.060 312.800,257.600 312.980,257.600 313.200 C 257.600 313.420,258.140 313.600,258.800 313.600 C 259.460 313.600,260.000 313.780,260.000 314.000 C 260.000 314.220,260.450 314.400,261.000 314.400 C 261.550 314.400,262.000 314.580,262.000 314.800 C 262.000 315.020,262.540 315.200,263.200 315.200 C 263.860 315.200,264.400 315.380,264.400 315.600 C 264.400 315.820,264.940 316.000,265.600 316.000 C 266.260 316.000,266.800 316.180,266.800 316.400 C 266.800 316.620,267.340 316.800,268.000 316.800 C 268.660 316.800,269.200 316.980,269.200 317.200 C 269.200 317.420,269.740 317.600,270.400 317.600 C 271.060 317.600,271.600 317.780,271.600 318.000 C 271.600 318.220,272.140 318.400,272.800 318.400 C 273.460 318.400,274.000 318.580,274.000 318.800 C 274.000 319.020,274.540 319.200,275.200 319.200 C 275.860 319.200,276.400 319.380,276.400 319.600 C 276.400 319.820,276.839 320.000,277.376 320.000 C 277.913 320.000,278.464 320.180,278.600 320.400 C 278.736 320.620,279.287 320.800,279.824 320.800 C 280.361 320.800,280.800 320.980,280.800 321.200 C 280.800 321.420,281.340 321.600,282.000 321.600 C 282.660 321.600,283.200 321.780,283.200 322.000 C 283.200 322.235,284.575 322.400,286.525 322.400 C 289.985 322.400,290.130 322.340,292.000 320.129 C 292.824 319.154,292.924 117.975,292.100 117.700 C 291.825 117.608,291.600 116.892,291.600 116.107 C 291.600 114.755,289.788 110.352,289.115 110.067 C 288.942 109.993,288.800 109.628,288.800 109.255 C 288.800 108.882,288.440 108.317,288.000 108.000 C 287.560 107.683,287.200 107.190,287.200 106.905 C 287.200 106.230,281.370 100.400,280.695 100.400 C 280.410 100.400,279.917 100.040,279.600 99.600 C 279.283 99.160,278.743 98.800,278.400 98.800 C 278.057 98.800,277.517 98.440,277.200 98.000 C 276.883 97.560,276.309 97.200,275.924 97.200 C 275.539 97.200,274.583 96.840,273.800 96.400 C 273.017 95.960,271.852 95.600,271.211 95.600 C 270.571 95.600,269.936 95.420,269.800 95.200 C 269.458 94.646,130.542 94.646,130.200 95.200 M267.172 104.855 C 267.957 105.106,268.960 105.448,269.400 105.615 C 269.840 105.782,270.785 106.139,271.500 106.408 C 272.215 106.677,272.800 107.055,272.800 107.249 C 272.800 107.442,273.042 107.600,273.338 107.600 C 273.634 107.600,274.202 107.960,274.600 108.400 C 274.998 108.840,275.511 109.200,275.740 109.200 C 276.350 109.200,278.400 111.262,278.400 111.875 C 278.400 112.164,278.554 112.400,278.742 112.400 C 279.129 112.400,282.045 118.251,282.742 120.428 C 283.294 122.152,283.410 310.623,282.859 310.964 C 282.535 311.164,281.025 310.763,278.800 309.887 C 277.009 309.181,276.241 308.918,273.400 308.032 C 271.860 307.552,270.240 307.012,269.800 306.832 C 269.360 306.652,267.740 306.112,266.200 305.632 C 264.660 305.152,263.040 304.612,262.600 304.433 C 262.160 304.254,257.480 302.712,252.200 301.007 C 246.920 299.301,242.240 297.754,241.800 297.569 C 241.360 297.384,237.670 296.138,233.600 294.800 C 229.530 293.462,225.840 292.219,225.400 292.039 C 224.960 291.858,223.880 291.494,223.000 291.229 C 222.120 290.964,221.040 290.603,220.600 290.426 C 220.160 290.249,218.540 289.712,217.000 289.232 C 215.460 288.752,213.840 288.207,213.400 288.022 C 211.241 287.114,200.830 284.000,199.951 284.000 C 198.935 284.000,178.787 290.464,177.505 291.201 C 177.123 291.420,176.446 291.600,176.000 291.600 C 175.554 291.600,174.877 291.759,174.495 291.953 C 173.353 292.534,171.954 293.047,169.000 293.968 C 167.460 294.448,165.840 294.991,165.400 295.175 C 164.960 295.359,163.790 295.741,162.800 296.024 C 161.810 296.307,160.829 296.688,160.620 296.870 C 160.411 297.051,159.914 297.200,159.515 297.200 C 159.116 297.200,158.477 297.366,158.095 297.569 C 157.713 297.771,153.080 299.326,147.800 301.023 C 142.520 302.720,137.840 304.256,137.400 304.438 C 136.960 304.619,133.270 305.862,129.200 307.200 C 125.130 308.538,121.440 309.779,121.000 309.957 C 118.442 310.992,117.437 311.183,117.126 310.695 C 116.953 310.423,116.853 279.780,116.905 242.600 L 117.000 175.000 165.800 174.794 C 192.640 174.680,215.050 174.440,215.600 174.260 C 226.646 170.637,227.926 156.751,217.677 151.718 L 215.400 150.600 166.200 150.400 L 117.000 150.200 116.886 136.400 C 116.809 127.105,116.919 122.012,117.223 120.800 C 117.785 118.562,120.184 113.477,120.996 112.803 C 121.328 112.528,121.600 112.109,121.600 111.873 C 121.600 111.279,123.643 109.200,124.226 109.200 C 124.488 109.200,124.923 108.934,125.193 108.608 C 125.463 108.283,126.160 107.776,126.742 107.482 C 127.324 107.188,128.160 106.755,128.600 106.520 C 129.494 106.043,130.809 105.509,132.600 104.896 C 134.385 104.285,265.258 104.245,267.172 104.855 " stroke="none" fill="#040404" fill-rule="evenodd"></path><path id="path2" d="M167.700 104.700 C 185.465 104.758,214.535 104.758,232.300 104.700 C 250.065 104.642,235.530 104.595,200.000 104.595 C 164.470 104.595,149.935 104.642,167.700 104.700 M265.800 105.200 C 266.240 105.389,266.870 105.544,267.200 105.544 C 267.578 105.544,267.504 105.417,267.000 105.200 C 266.560 105.011,265.930 104.856,265.600 104.856 C 265.222 104.856,265.296 104.983,265.800 105.200 M122.801 110.598 C 122.286 111.148,121.939 111.648,122.032 111.711 C 122.124 111.774,122.684 111.324,123.274 110.712 C 123.865 110.101,124.212 109.600,124.044 109.600 C 123.877 109.600,123.317 110.049,122.801 110.598 M276.726 110.712 C 277.316 111.324,277.876 111.774,277.968 111.711 C 278.199 111.555,276.335 109.600,275.956 109.600 C 275.788 109.600,276.135 110.101,276.726 110.712 M119.698 115.300 C 119.299 115.799,118.532 117.980,118.889 117.600 C 119.170 117.301,120.358 114.800,120.218 114.800 C 120.152 114.800,119.918 115.025,119.698 115.300 M282.006 120.633 C 282.009 121.055,282.195 121.670,282.418 122.000 C 282.715 122.438,282.752 122.276,282.556 121.400 C 282.227 119.929,281.998 119.610,282.006 120.633 M117.429 121.429 C 117.281 122.015,117.238 122.572,117.332 122.666 C 117.427 122.760,117.624 122.358,117.771 121.771 C 117.919 121.185,117.962 120.628,117.868 120.534 C 117.773 120.440,117.576 120.842,117.429 121.429 M141.331 149.900 C 154.713 149.958,176.493 149.958,189.731 149.900 C 202.969 149.841,192.020 149.794,165.400 149.794 C 138.780 149.794,127.949 149.842,141.331 149.900 M216.542 150.796 C 218.629 151.611,221.193 153.211,221.197 153.700 C 221.199 153.865,221.425 153.994,221.700 153.986 C 221.975 153.978,221.660 153.512,221.000 152.951 C 219.630 151.785,216.094 150.001,215.200 150.023 C 214.870 150.031,215.474 150.379,216.542 150.796 M224.931 162.600 C 224.933 164.140,225.005 164.721,225.092 163.891 C 225.179 163.061,225.177 161.801,225.089 161.091 C 225.000 160.381,224.929 161.060,224.931 162.600 M223.461 168.300 L 222.774 169.800 223.578 168.800 C 224.271 167.938,224.667 166.800,224.274 166.800 C 224.205 166.800,223.839 167.475,223.461 168.300 M221.178 171.500 L 219.800 173.000 221.300 171.622 C 222.696 170.338,222.984 170.000,222.678 170.000 C 222.612 170.000,221.937 170.675,221.178 171.500 M218.000 173.600 C 217.230 174.022,216.870 174.370,217.200 174.374 C 217.530 174.379,218.250 174.030,218.800 173.600 C 220.057 172.617,219.796 172.617,218.000 173.600 M117.462 175.100 C 117.294 175.371,151.361 175.369,197.800 175.095 C 207.480 175.038,193.406 174.948,166.524 174.896 C 139.642 174.843,117.564 174.935,117.462 175.100 M203.568 284.428 C 204.760 284.851,205.805 285.128,205.890 285.044 C 206.076 284.857,202.433 283.588,201.829 283.629 C 201.593 283.645,202.376 284.005,203.568 284.428 M208.368 286.028 C 209.560 286.451,210.605 286.728,210.690 286.644 C 210.876 286.457,207.233 285.188,206.629 285.229 C 206.393 285.245,207.176 285.605,208.368 286.028 M220.368 290.028 C 221.560 290.451,222.605 290.728,222.690 290.644 C 222.876 290.457,219.233 289.188,218.629 289.229 C 218.393 289.245,219.176 289.605,220.368 290.028 M227.600 292.333 C 227.930 292.536,228.650 292.824,229.200 292.971 C 229.895 293.157,230.017 293.125,229.600 292.867 C 229.270 292.664,228.550 292.376,228.000 292.229 C 227.305 292.043,227.183 292.075,227.600 292.333 M165.675 294.273 C 164.726 294.609,164.021 294.954,164.107 295.040 C 164.193 295.127,165.240 294.851,166.432 294.428 C 167.624 294.005,168.330 293.660,168.000 293.661 C 167.670 293.662,166.624 293.938,165.675 294.273 M232.035 293.738 C 232.362 294.107,238.099 296.034,238.293 295.840 C 238.380 295.753,237.225 295.277,235.726 294.783 C 234.226 294.288,232.730 293.791,232.400 293.678 C 232.070 293.565,231.906 293.592,232.035 293.738 M158.475 296.673 C 157.526 297.009,156.821 297.354,156.907 297.440 C 156.993 297.527,158.040 297.251,159.232 296.828 C 160.424 296.405,161.130 296.060,160.800 296.061 C 160.470 296.062,159.424 296.338,158.475 296.673 M239.239 296.142 C 239.567 296.511,247.701 299.233,247.895 299.038 C 247.981 298.953,246.284 298.298,244.125 297.583 C 241.966 296.868,239.930 296.190,239.600 296.078 C 239.270 295.965,239.108 295.994,239.239 296.142 M153.675 298.273 C 152.726 298.609,152.021 298.954,152.107 299.040 C 152.193 299.127,153.240 298.851,154.432 298.428 C 155.624 298.005,156.330 297.660,156.000 297.661 C 155.670 297.662,154.624 297.938,153.675 298.273 M252.768 300.828 C 253.960 301.251,255.005 301.528,255.090 301.444 C 255.276 301.257,251.633 299.988,251.029 300.029 C 250.793 300.045,251.576 300.405,252.768 300.828 M141.675 302.273 C 140.726 302.609,140.021 302.954,140.107 303.040 C 140.193 303.127,141.240 302.851,142.432 302.428 C 143.624 302.005,144.330 301.660,144.000 301.661 C 143.670 301.662,142.624 301.938,141.675 302.273 M256.200 302.000 C 256.640 302.189,257.270 302.344,257.600 302.344 C 257.978 302.344,257.904 302.217,257.400 302.000 C 256.960 301.811,256.330 301.656,256.000 301.656 C 255.622 301.656,255.696 301.783,256.200 302.000 M259.400 302.955 C 260.060 303.255,261.050 303.611,261.600 303.746 C 262.403 303.943,262.364 303.884,261.400 303.445 C 260.740 303.145,259.750 302.789,259.200 302.654 C 258.397 302.457,258.436 302.516,259.400 302.955 M121.800 308.986 C 120.255 309.693,120.974 309.703,122.800 309.000 C 123.570 308.703,123.930 308.455,123.600 308.448 C 123.270 308.442,122.460 308.683,121.800 308.986 M276.800 308.733 C 277.130 308.936,277.850 309.224,278.400 309.371 C 279.095 309.557,279.217 309.525,278.800 309.267 C 278.470 309.064,277.750 308.776,277.200 308.629 C 276.505 308.443,276.383 308.475,276.800 308.733 " stroke="none" fill="#7c7c7c" fill-rule="evenodd"></path><path id="path3" d="M133.200 104.800 C 132.436 105.294,133.258 105.294,134.800 104.800 L 135.800 104.480 134.800 104.446 C 134.250 104.427,133.530 104.587,133.200 104.800 M264.433 104.543 C 264.525 104.621,265.230 104.801,266.000 104.942 C 266.985 105.123,267.222 105.082,266.800 104.806 C 266.258 104.450,264.037 104.203,264.433 104.543 M130.400 105.595 C 130.070 105.786,129.459 106.050,129.043 106.181 C 128.626 106.312,128.387 106.520,128.510 106.644 C 128.634 106.767,129.335 106.599,130.068 106.270 C 130.800 105.941,131.670 105.580,132.000 105.467 C 132.408 105.329,132.344 105.261,131.800 105.255 C 131.360 105.251,130.730 105.403,130.400 105.595 M268.000 105.467 C 269.193 105.873,271.413 106.846,272.000 107.220 C 272.330 107.430,272.967 107.763,273.416 107.959 C 273.865 108.156,274.473 108.605,274.765 108.958 C 275.058 109.311,275.515 109.600,275.779 109.600 C 276.361 109.600,278.000 111.281,278.000 111.877 C 278.000 112.111,278.262 112.519,278.582 112.785 C 279.095 113.211,281.582 117.984,282.132 119.600 C 282.314 120.133,282.341 120.133,282.372 119.600 C 282.418 118.812,279.185 112.400,278.742 112.400 C 278.554 112.400,278.400 112.185,278.400 111.922 C 278.400 111.298,276.386 109.200,275.787 109.200 C 275.532 109.200,274.998 108.840,274.600 108.400 C 274.202 107.960,273.634 107.600,273.338 107.600 C 273.042 107.600,272.800 107.442,272.800 107.249 C 272.800 107.055,272.215 106.680,271.500 106.415 C 270.785 106.150,269.887 105.768,269.505 105.567 C 269.123 105.365,268.493 105.214,268.105 105.232 C 267.559 105.256,267.535 105.309,268.000 105.467 M126.903 107.375 C 126.409 107.648,125.675 108.170,125.271 108.536 C 124.867 108.901,124.360 109.200,124.143 109.200 C 123.622 109.200,121.600 111.325,121.600 111.873 C 121.600 112.109,121.334 112.523,121.008 112.793 C 120.683 113.063,120.148 113.823,119.819 114.482 C 119.298 115.526,119.297 115.617,119.811 115.191 C 120.135 114.922,120.400 114.482,120.400 114.213 C 120.400 113.944,120.760 113.398,121.200 113.000 C 121.640 112.602,122.000 112.065,122.000 111.808 C 122.000 111.243,123.685 109.600,124.264 109.600 C 124.491 109.600,125.002 109.240,125.400 108.800 C 125.798 108.360,126.344 108.000,126.613 108.000 C 126.882 108.000,127.326 107.730,127.600 107.400 C 128.176 106.706,128.116 106.704,126.903 107.375 M118.323 117.507 C 116.880 120.957,116.770 122.403,116.886 136.400 L 117.000 150.200 166.236 150.400 L 215.471 150.600 218.036 151.897 C 219.595 152.686,220.241 152.891,219.684 152.420 C 216.677 149.878,219.398 150.000,165.785 150.000 L 117.200 150.000 117.200 136.146 C 117.200 122.332,117.326 120.768,118.684 117.668 C 119.006 116.935,119.196 116.263,119.108 116.175 C 119.020 116.086,118.667 116.686,118.323 117.507 M282.600 215.538 C 282.600 310.370,282.598 310.600,281.800 310.490 C 281.066 310.389,281.058 310.416,281.703 310.812 C 282.090 311.049,282.585 311.133,282.803 310.998 C 283.270 310.710,283.360 121.671,282.894 120.938 C 282.732 120.684,282.600 163.254,282.600 215.538 M222.400 155.091 C 222.400 155.358,222.760 156.217,223.200 157.000 C 223.640 157.783,224.003 158.734,224.006 159.112 C 224.009 159.490,224.200 160.070,224.430 160.400 C 224.738 160.841,224.776 160.630,224.575 159.600 C 224.293 158.154,222.400 154.230,222.400 155.091 M224.273 164.953 C 224.123 165.345,224.011 165.966,224.025 166.333 C 224.042 166.775,224.181 166.674,224.437 166.034 C 224.649 165.503,224.761 164.882,224.685 164.654 C 224.609 164.427,224.424 164.561,224.273 164.953 M220.921 171.047 C 219.777 172.234,219.163 173.034,219.555 172.824 C 220.274 172.439,223.200 169.369,223.200 168.999 C 223.200 168.690,223.129 168.753,220.921 171.047 M214.800 174.400 C 214.005 174.914,215.004 174.914,216.200 174.400 L 217.000 174.056 216.200 174.034 C 215.760 174.022,215.130 174.187,214.800 174.400 M117.067 175.067 C 116.666 175.467,116.757 310.113,117.158 310.747 C 117.427 311.171,117.672 311.191,118.252 310.837 C 118.968 310.400,118.966 310.385,118.200 310.490 C 117.403 310.600,117.400 310.370,117.400 242.700 C 117.400 205.355,117.385 174.800,117.367 174.800 C 117.348 174.800,117.213 174.920,117.067 175.067 M195.400 284.800 C 193.640 285.426,192.393 285.951,192.630 285.969 C 192.866 285.986,194.383 285.550,196.000 285.000 C 197.617 284.450,199.417 284.000,200.000 284.000 C 200.583 284.000,202.383 284.450,204.000 285.000 C 205.617 285.550,207.134 285.986,207.370 285.970 C 208.355 285.901,200.933 283.603,199.818 283.631 C 199.148 283.649,197.160 284.174,195.400 284.800 M176.200 291.200 C 175.429 291.531,175.431 291.545,176.276 291.572 C 176.758 291.587,177.264 291.420,177.400 291.200 C 177.692 290.727,177.301 290.727,176.200 291.200 M225.307 291.824 C 225.655 292.191,228.389 293.193,229.000 293.178 C 229.453 293.167,227.450 292.256,225.974 291.801 C 225.438 291.636,225.138 291.646,225.307 291.824 M171.400 292.800 C 170.629 293.131,170.631 293.145,171.476 293.172 C 171.958 293.187,172.464 293.020,172.600 292.800 C 172.892 292.327,172.501 292.327,171.400 292.800 M229.600 293.346 C 229.600 293.533,233.389 294.808,233.875 294.784 C 234.346 294.762,231.992 293.778,230.700 293.457 C 230.095 293.307,229.600 293.257,229.600 293.346 M164.200 295.200 C 163.429 295.531,163.431 295.545,164.276 295.572 C 164.758 295.587,165.264 295.420,165.400 295.200 C 165.692 294.727,165.301 294.727,164.200 295.200 M236.800 295.746 C 236.800 295.933,240.589 297.208,241.075 297.184 C 241.546 297.162,239.192 296.178,237.900 295.857 C 237.295 295.707,236.800 295.657,236.800 295.746 M159.400 296.800 C 158.629 297.131,158.631 297.145,159.476 297.172 C 159.958 297.187,160.464 297.020,160.600 296.800 C 160.892 296.327,160.501 296.327,159.400 296.800 M157.000 297.600 C 156.229 297.931,156.231 297.945,157.076 297.972 C 157.558 297.987,158.064 297.820,158.200 297.600 C 158.492 297.127,158.101 297.127,157.000 297.600 M241.800 297.600 C 241.936 297.820,242.442 297.987,242.924 297.972 C 243.769 297.945,243.771 297.931,243.000 297.600 C 241.899 297.127,241.508 297.127,241.800 297.600 M148.000 300.600 C 145.250 301.555,143.188 302.351,143.419 302.369 C 143.914 302.406,153.224 299.310,153.526 299.007 C 153.935 298.598,152.924 298.889,148.000 300.600 M250.035 300.152 C 250.345 300.483,256.016 302.409,256.570 302.370 C 256.807 302.354,255.800 301.921,254.334 301.408 C 250.650 300.119,249.762 299.860,250.035 300.152 M257.600 302.800 C 257.930 303.013,258.470 303.188,258.800 303.188 C 259.333 303.188,259.333 303.145,258.800 302.800 C 258.470 302.587,257.930 302.412,257.600 302.412 C 257.067 302.412,257.067 302.455,257.600 302.800 M274.400 308.382 C 274.730 308.605,275.345 308.791,275.767 308.794 C 276.790 308.802,276.471 308.573,275.000 308.244 C 274.124 308.048,273.962 308.085,274.400 308.382 M119.800 310.000 C 119.029 310.331,119.031 310.345,119.876 310.372 C 120.358 310.387,120.864 310.220,121.000 310.000 C 121.292 309.527,120.901 309.527,119.800 310.000 M279.000 310.000 C 279.136 310.220,279.642 310.387,280.124 310.372 C 280.969 310.345,280.971 310.331,280.200 310.000 C 279.099 309.527,278.708 309.527,279.000 310.000 " stroke="none" fill="#3c3c3c" fill-rule="evenodd"></path><path id="path4" d="M134.200 105.200 C 133.429 105.531,133.431 105.545,134.276 105.572 C 134.758 105.587,135.264 105.420,135.400 105.200 C 135.692 104.727,135.301 104.727,134.200 105.200 M130.200 106.422 C 129.320 106.838,128.887 107.184,129.239 107.190 C 129.895 107.200,132.400 106.076,132.400 105.771 C 132.400 105.477,131.855 105.639,130.200 106.422 M125.550 109.003 C 124.092 109.972,122.533 111.358,122.085 112.083 C 121.636 112.807,120.871 114.030,120.385 114.800 C 119.513 116.180,119.512 116.189,120.350 115.438 C 120.818 115.019,121.200 114.456,121.200 114.187 C 121.200 113.918,121.489 113.458,121.842 113.165 C 122.195 112.873,122.641 112.217,122.834 111.709 C 123.028 111.201,123.601 110.628,124.109 110.434 C 124.617 110.241,125.273 109.795,125.565 109.442 C 125.858 109.089,126.318 108.800,126.587 108.800 C 126.856 108.800,127.402 108.440,127.800 108.000 C 128.805 106.889,128.571 106.994,125.550 109.003 M272.162 107.950 C 272.581 108.418,273.144 108.800,273.413 108.800 C 273.682 108.800,274.142 109.089,274.435 109.442 C 274.727 109.795,275.383 110.241,275.891 110.434 C 276.399 110.628,276.980 111.221,277.182 111.754 C 277.385 112.287,277.751 112.846,277.996 112.998 C 278.376 113.232,281.052 118.552,281.720 120.400 C 281.889 120.868,281.944 120.844,281.968 120.290 C 282.052 118.406,277.476 110.897,275.497 109.673 C 274.784 109.231,273.570 108.471,272.800 107.985 C 271.420 107.113,271.411 107.112,272.162 107.950 M118.876 117.831 C 117.376 121.496,117.200 123.473,117.200 136.620 L 117.200 149.600 164.950 149.600 C 191.213 149.600,213.290 149.718,214.012 149.862 C 214.955 150.051,215.244 149.995,215.039 149.662 C 214.825 149.317,202.502 149.200,166.176 149.200 L 117.600 149.200 117.600 136.432 C 117.600 123.639,117.957 119.745,119.281 118.113 C 119.498 117.846,119.603 117.410,119.515 117.145 C 119.426 116.879,119.139 117.188,118.876 117.831 M282.303 215.703 C 282.384 290.828,282.304 309.821,281.903 310.105 C 281.528 310.370,281.553 310.419,282.000 310.297 C 282.655 310.118,283.152 123.358,282.501 122.194 C 282.335 121.899,282.246 163.978,282.303 215.703 M217.834 150.955 C 221.235 152.539,224.053 155.901,224.911 159.400 C 225.091 160.133,225.111 160.125,225.154 159.312 C 225.218 158.081,223.462 154.376,222.333 153.360 C 220.505 151.715,217.641 150.000,216.728 150.004 C 216.065 150.007,216.380 150.278,217.834 150.955 M225.324 162.600 C 225.326 163.920,225.401 164.412,225.490 163.693 C 225.579 162.974,225.577 161.894,225.486 161.293 C 225.395 160.692,225.322 161.280,225.324 162.600 M224.625 166.401 C 224.031 169.403,219.896 173.588,216.468 174.658 C 215.661 174.910,215.288 175.135,215.640 175.158 C 216.582 175.220,218.895 174.378,219.703 173.679 C 220.089 173.345,220.806 172.871,221.295 172.628 C 221.784 172.384,222.384 171.784,222.628 171.295 C 222.871 170.806,223.347 170.089,223.685 169.703 C 224.442 168.836,225.329 166.170,225.083 165.497 C 224.984 165.223,224.778 165.631,224.625 166.401 M117.385 175.700 C 116.888 177.006,117.408 310.135,117.910 310.237 C 118.191 310.294,118.236 310.249,118.010 310.137 C 117.732 309.999,117.600 288.238,117.600 242.768 L 117.600 175.603 166.300 175.500 L 215.000 175.397 166.287 175.298 C 127.613 175.220,117.536 175.303,117.385 175.700 M196.200 283.822 C 195.218 284.302,195.182 284.361,196.000 284.146 C 198.717 283.433,202.111 283.533,204.481 284.397 C 205.793 284.876,206.951 285.182,207.055 285.078 C 208.233 283.900,198.374 282.760,196.200 283.822 M182.508 288.344 C 177.397 290.053,173.097 291.569,172.953 291.713 C 172.809 291.857,173.211 291.820,173.846 291.630 C 176.567 290.816,192.199 285.534,192.358 285.375 C 192.773 284.960,191.291 285.407,182.508 288.344 M208.833 285.763 C 209.148 286.071,220.102 289.631,220.257 289.476 C 220.404 289.329,209.517 285.600,208.941 285.600 C 208.790 285.600,208.742 285.673,208.833 285.763 M220.833 289.756 C 221.008 289.920,224.215 291.051,226.108 291.617 C 226.717 291.800,227.133 291.816,227.033 291.654 C 226.933 291.491,225.928 291.107,224.800 290.800 C 223.672 290.493,222.660 290.097,222.551 289.921 C 222.442 289.744,221.973 289.600,221.510 289.600 C 221.046 289.600,220.742 289.670,220.833 289.756 M168.200 293.200 C 167.908 293.673,168.299 293.673,169.400 293.200 C 170.171 292.869,170.169 292.855,169.324 292.828 C 168.842 292.813,168.336 292.980,168.200 293.200 M230.600 293.200 C 231.701 293.673,232.092 293.673,231.800 293.200 C 231.664 292.980,231.158 292.813,230.676 292.828 C 229.831 292.855,229.829 292.869,230.600 293.200 M146.400 300.400 C 145.867 300.745,145.867 300.788,146.400 300.788 C 146.730 300.788,147.270 300.613,147.600 300.400 C 148.133 300.055,148.133 300.012,147.600 300.012 C 147.270 300.012,146.730 300.187,146.400 300.400 M253.800 300.818 C 254.900 301.248,255.977 301.541,256.193 301.469 C 256.613 301.329,252.946 299.987,252.229 300.019 C 251.993 300.029,252.700 300.389,253.800 300.818 M132.505 304.977 C 127.832 306.561,123.872 308.008,123.705 308.193 C 123.537 308.377,123.756 308.399,124.191 308.241 C 124.626 308.084,128.766 306.688,133.391 305.139 C 138.016 303.590,141.875 302.250,141.967 302.161 C 142.445 301.698,140.216 302.361,132.505 304.977 M260.433 302.964 C 260.749 303.275,276.502 308.431,276.658 308.275 C 276.745 308.189,274.787 307.456,272.308 306.646 C 269.828 305.836,267.440 305.023,267.000 304.839 C 264.701 303.878,259.997 302.535,260.433 302.964 M119.000 309.600 C 118.708 310.073,119.099 310.073,120.200 309.600 C 120.971 309.269,120.969 309.255,120.124 309.228 C 119.642 309.213,119.136 309.380,119.000 309.600 " stroke="none" fill="#cbb3ab" fill-rule="evenodd"></path></g></svg>