<svg height="480pt" viewBox="-104 0 480 480" width="480pt" xmlns="http://www.w3.org/2000/svg"><path d="m48 424h168c0 26.507812-21.492188 48-48 48h-72c-26.507812 0-48-21.492188-48-48zm0 0" fill="#cfdfe8"/><path d="m24 344h224v80h-224zm0 0" fill="#7e8a96"/><path d="m128 392h-104c-4.417969 0-8-3.582031-8-8s3.582031-8 8-8h104c4.417969 0 8 3.582031 8 8s-3.582031 8-8 8zm0 0" fill="#cfdfe8"/><path d="m168 392h-8c-4.417969 0-8-3.582031-8-8s3.582031-8 8-8h8c4.417969 0 8 3.582031 8 8s-3.582031 8-8 8zm0 0" fill="#cfdfe8"/><path d="m264 137.230469c0-67.175781-57.304688-129.230469-128-129.230469s-128 62.054688-128 129.230469c0 43.296875 39.617188 91.609375 59.734375 131.503906 10.402344 20.609375 0 75.265625 0 75.265625h136.53125s-10.402344-54.65625 0-75.265625c20.117187-39.894531 59.734375-88.207031 59.734375-131.503906zm0 0" fill="#ffd782"/><path d="m120 208h32v136h-32zm0 0" fill="#e97424"/><path d="m184 192c0 26.507812-21.492188 48-48 48s-48-21.492188-48-48 21.492188-48 48-48 48 21.492188 48 48zm0 0" fill="#f98d43"/><g fill="#fcf05a"><path d="m136 112c-4.417969 0-8-3.582031-8-8v-48c0-4.417969 3.582031-8 8-8s8 3.582031 8 8v48c0 4.417969-3.582031 8-8 8zm0 0"/><path d="m178.976562 119.113281c-3.445312 0-6.5-2.203125-7.589843-5.472656-1.089844-3.265625.035156-6.863281 2.789062-8.929687l34.398438-25.773438c3.535156-2.652344 8.550781-1.9375 11.203125 1.597656 2.648437 3.535156 1.933594 8.550782-1.601563 11.199219l-34.398437 25.777344c-1.382813 1.042969-3.070313 1.605469-4.800782 1.601562zm0 0"/><path d="m93.03125 119.113281c-2.121094 0-4.15625-.84375-5.65625-2.34375l-25.773438-25.777343c-3.128906-3.125-3.128906-8.191407-.003906-11.316407 3.121094-3.125 8.1875-3.128906 11.3125-.003906l25.777344 25.785156c2.289062 2.285157 2.972656 5.726563 1.734375 8.714844-1.238281 2.992187-4.15625 4.9375-7.390625 4.941406zm0 0"/><path d="m204.742188 153.488281c-3.933594.015625-7.296876-2.835937-7.925782-6.71875-.628906-3.886719 1.660156-7.652343 5.398438-8.882812l25.785156-8.582031c4.199219-1.398438 8.730469.875 10.128906 5.070312 1.394532 4.199219-.875 8.734375-5.074218 10.128906l-25.773438 8.59375c-.820312.265625-1.675781.398438-2.539062.390625zm0 0"/><path d="m67.257812 153.488281c-.863281-.003906-1.714843-.144531-2.53125-.417969l-25.773437-8.589843c-4.199219-1.398438-6.46875-5.929688-5.074219-10.128907 1.398438-4.195312 5.933594-6.46875 10.128906-5.070312l25.777344 8.582031c3.738282 1.230469 6.027344 4.996094 5.398438 8.878907-.628906 3.886718-3.992188 6.738281-7.925782 6.722656zm0 0"/></g><path d="m168 376h-8c-4.417969 0-8 3.582031-8 8s3.582031 8 8 8h8c4.417969 0 8-3.582031 8-8s-3.582031-8-8-8zm0 0"/><path d="m60.59375 272.335938c6.574219 13.046874 3.199219 45.96875.398438 63.664062h-36.992188c-4.417969 0-8 3.582031-8 8v80c0 4.417969 3.582031 8 8 8h16.640625c3.972656 27.527344 27.546875 47.96875 55.359375 48h72c27.8125-.03125 51.386719-20.472656 55.359375-48h24.640625c4.417969 0 8-3.582031 8-8v-80c0-4.417969-3.582031-8-8-8h-37c-3.304688-20.734375-5.601562-51.734375.40625-63.664062 5.546875-10.992188 12.601562-22.640626 20.089844-34.976563 19.910156-32.855469 40.503906-66.832031 40.503906-100.128906 0-73.101563-63.550781-137.230469-136-137.230469s-136 64.128906-136 137.230469c0 33.296875 20.59375 67.273437 40.503906 100.128906 7.496094 12.335937 14.542969 23.984375 20.089844 34.976563zm107.40625 191.664062h-72c-19-.019531-35.375-13.386719-39.199219-32h150.398438c-3.824219 18.613281-20.199219 31.980469-39.199219 32zm72-48h-208v-24h96c4.417969 0 8-3.582031 8-8s-3.582031-8-8-8h-96v-24h208zm-104-184c-22.089844 0-40-17.910156-40-40s17.910156-40 40-40 40 17.910156 40 40c-.027344 22.082031-17.917969 39.972656-40 40zm-8 15.359375c5.300781.855469 10.699219.855469 16 0v88.640625h-16zm8-231.359375c63.929688 0 120 56.648438 120 121.230469 0 28.800781-19.414062 60.867187-38.191406 91.839843-7.640625 12.609376-14.863282 24.515626-20.6875 36.066407-8.847656 17.550781-4.945313 53.382812-2.304688 70.863281h-34.816406v-93.480469c23.660156-11.222656 36.382812-37.347656 30.632812-62.894531-5.753906-25.550781-28.445312-43.703125-54.632812-43.703125s-48.878906 18.152344-54.632812 43.703125c-5.75 25.546875 6.972656 51.671875 30.632812 62.894531v93.480469h-34.816406c2.640625-17.480469 6.542968-53.3125-2.304688-70.863281-5.824218-11.550781-13.046875-23.457031-20.6875-36.066407-18.777344-30.972656-38.191406-63.007812-38.191406-91.839843 0-64.582031 56.070312-121.230469 120-121.230469zm0 0"/><path d="m136 112c4.417969 0 8-3.582031 8-8v-48c0-4.417969-3.582031-8-8-8s-8 3.582031-8 8v48c0 4.417969 3.582031 8 8 8zm0 0"/><path d="m178.976562 119.113281c1.730469.003907 3.417969-.558593 4.800782-1.601562l34.398437-25.777344c3.535157-2.648437 4.25-7.664063 1.601563-11.199219-2.652344-3.535156-7.667969-4.25-11.203125-1.597656l-34.398438 25.773438c-2.753906 2.066406-3.878906 5.664062-2.789062 8.929687 1.089843 3.269531 4.144531 5.472656 7.589843 5.472656zm0 0"/><path d="m87.375 116.800781c3.140625 3.03125 8.128906 2.988281 11.214844-.097656 3.085937-3.085937 3.128906-8.074219.097656-11.214844l-25.777344-25.785156c-1.976562-2.1875-5.003906-3.109375-7.867187-2.394531-2.863281.710937-5.101563 2.945312-5.824219 5.808594-.71875 2.863281.195312 5.890624 2.382812 7.875zm0 0"/><path d="m197.152344 148c1.394531 4.195312 5.925781 6.460938 10.121094 5.0625l25.773437-8.589844c4.199219-1.398437 6.46875-5.929687 5.074219-10.128906-1.398438-4.195312-5.933594-6.46875-10.128906-5.070312l-25.777344 8.582031c-2.019532.671875-3.6875 2.117187-4.636719 4.019531-.953125 1.90625-1.105469 4.109375-.425781 6.125zm0 0"/><path d="m67.257812 153.488281c3.933594.015625 7.296876-2.835937 7.925782-6.71875.628906-3.886719-1.660156-7.652343-5.398438-8.882812l-25.785156-8.582031c-4.199219-1.398438-8.730469.875-10.128906 5.070312-1.394532 4.199219.875 8.734375 5.074218 10.128906l25.773438 8.59375c.820312.265625 1.675781.398438 2.539062.390625zm0 0"/></svg>